<?xml version="1.0" encoding="UTF-8" standalone="no"?>
<svg
   xmlns:dc="http://purl.org/dc/elements/1.1/"
   xmlns:cc="http://creativecommons.org/ns#"
   xmlns:rdf="http://www.w3.org/1999/02/22-rdf-syntax-ns#"
   xmlns:svg="http://www.w3.org/2000/svg"
   xmlns="http://www.w3.org/2000/svg"
   xmlns:sodipodi="http://sodipodi.sourceforge.net/DTD/sodipodi-0.dtd"
   xmlns:inkscape="http://www.inkscape.org/namespaces/inkscape"
   viewBox="0 0 850.93997 509.60666"
   height="509.60666"
   width="850.94"
   xml:space="preserve"
   id="svg2"
   version="1.1"
   sodipodi:docname="penumbra-dark.svg"
   inkscape:version="1.0.2 (e86c870879, 2021-01-15)"><sodipodi:namedview
     pagecolor="#ffffff"
     bordercolor="#666666"
     borderopacity="1"
     objecttolerance="10"
     gridtolerance="10"
     guidetolerance="10"
     inkscape:pageopacity="0"
     inkscape:pageshadow="2"
     inkscape:window-width="1873"
     inkscape:window-height="2047"
     id="namedview26"
     showgrid="false"
     inkscape:zoom="1.0331982"
     inkscape:cx="412.53666"
     inkscape:cy="262.58865"
     inkscape:window-x="1350"
     inkscape:window-y="36"
     inkscape:window-maximized="0"
     inkscape:current-layer="svg2"
     fit-margin-top="0"
     fit-margin-left="0"
     fit-margin-right="0"
     fit-margin-bottom="0" /><metadata
     id="metadata8"><rdf:RDF><cc:Work
         rdf:about=""><dc:format>image/svg+xml</dc:format><dc:type
           rdf:resource="http://purl.org/dc/dcmitype/StillImage" /><dc:title></dc:title></cc:Work></rdf:RDF></metadata><defs
     id="defs6"><radialGradient
       id="radialGradient42"
       spreadMethod="pad"
       gradientTransform="matrix(188.17838,0,0,-188.17838,427.97968,289.30325)"
       gradientUnits="userSpaceOnUse"
       r="1"
       cy="0"
       cx="0"
       fy="0"
       fx="0"><stop
         id="stop26"
         offset="0"
         style="stop-opacity:1;stop-color:#563c70" /><stop
         id="stop28"
         offset="0.125946"
         style="stop-opacity:1;stop-color:#563c70" /><stop
         id="stop30"
         offset="0.318298"
         style="stop-opacity:1;stop-color:#e1813b" /><stop
         id="stop32"
         offset="0.742265"
         style="stop-opacity:1;stop-color:#ff902f" /><stop
         id="stop34"
         offset="0.79999979"
         style="stop-opacity:1;stop-color:#ff902f" /><stop
         id="stop36"
         offset="0.939375"
         style="stop-opacity:1;stop-color:#8be4d9" /><stop
         id="stop38"
         offset="0.9437689"
         style="stop-opacity:1;stop-color:#8be4d9" /><stop
         id="stop40"
         offset="1"
         style="stop-opacity:1;stop-color:#8be4d9" /></radialGradient><clipPath
       id="clipPath52"
       clipPathUnits="userSpaceOnUse"><path
         id="path50"
         d="M 0,566.929 H 850.394 V 0 H 0 Z" /></clipPath></defs><g
     transform="matrix(1.3333333,0,0,-1.3333333,-154.39266,640.54132)"
     id="g10"><!--<path
       id="path12"
       style="fill:#000000;fill-opacity:1;fill-rule:nonzero;stroke:none"
       d="M 0,0 H 850.333 V 566.894 H 0 Z" />--><g
       id="g14"><g
         id="g16"><g
           id="g22"><g
             id="g24"><path
               id="path44"
               style="fill:url(#radialGradient42);stroke:none"
               d="m 506.024,475.527 c -14.11,-5.043 -27.937,-11.426 -41.31,-17.599 v 0 c -24.777,-11.438 -48.18,-22.24 -67.031,-21.11 v 0 c -6.495,0.389 -14.421,1.382 -23.597,2.531 v 0 c -34.055,4.266 -80.695,10.106 -104.568,-9.392 v 0 c -7.361,-6.011 -11.117,-16.463 -11.484,-31.952 v 0 c -0.327,-13.773 1.995,-30.171 4.241,-46.03 v 0 c 3.597,-25.402 7.316,-51.668 0.214,-67.675 v 0 c -15.783,-35.566 -21.991,-63.759 -18.981,-86.188 v 0 c 3.104,-23.139 15.991,-40.28 39.395,-52.402 v 0 c 14.26,-7.384 27.996,-9.347 42.539,-11.426 v 0 c 19.8,-2.831 42.244,-6.038 71.676,-23.555 v 0 c 14.229,-8.469 26.784,-12.528 39.292,-12.528 v 0 c 4.214,0 8.423,0.461 12.687,1.368 v 0 c 19.346,4.118 39.97,17.525 64.909,42.194 v 0 c 12.83,12.69 28.264,20.07 43.188,27.207 v 0 c 17.238,8.242 35.063,16.764 48.561,33.488 v 0 c 17.038,21.108 1.637,38.698 -14.668,57.322 v 0 c -9.584,10.946 -19.493,22.266 -23.623,35.012 v 0 c -9.026,27.871 -6.813,44.067 -3.464,68.583 v 0 c 1.919,14.05 4.307,31.534 4.897,55.429 v 0 c 0.688,27.819 -5.275,46.49 -17.721,55.491 v 0 c -5.632,4.073 -12.529,6.111 -20.624,6.111 v 0 c -7.233,0 -15.423,-1.626 -24.528,-4.879 M 464.87,457.591 c 13.365,6.169 27.184,12.549 41.28,17.586 v 0 c 19.173,6.851 34.25,6.453 44.808,-1.183 v 0 c 12.341,-8.925 18.251,-27.49 17.568,-55.18 v 0 c -0.591,-23.875 -2.977,-41.349 -4.896,-55.389 v 0 c -3.355,-24.566 -5.572,-40.796 3.482,-68.747 v 0 c 0.277,-0.858 0.582,-1.708 0.91,-2.553 v 0 c -0.567,1.352 -1.08,2.719 -1.524,4.102 v 0 c -8.777,27.322 -7.194,43.342 -4.799,67.592 v 0 c 1.387,14.035 2.959,29.944 2.952,52.106 v 0 c -0.047,26.162 -6.256,43.89 -18.453,52.692 v 0 c -10.579,7.634 -25.442,8.369 -44.177,2.184 v 0 c -14.048,-4.62 -27.843,-10.6 -41.183,-16.384 v 0 c -22.982,-9.964 -44.727,-19.392 -62.77,-19.391 v 0 c -0.579,0 -1.158,0.01 -1.73,0.029 v 0 c -6.339,0.22 -14.195,0.942 -22.511,1.707 v 0 c -33.245,3.055 -78.775,7.242 -102.144,-12.674 v 0 c -16.303,-13.989 -12.075,-46.706 -7.988,-78.347 v 0 c 3.123,-24.169 6.353,-49.162 0.123,-64.911 v 0 c -13.749,-34.76 -18.63,-62.241 -14.921,-84.014 v 0 c 3.841,-22.557 16.895,-39.263 39.908,-51.074 v 0 c 14.584,-7.48 28.728,-9.523 43.704,-11.684 v 0 c 19.241,-2.776 41.05,-5.923 69.023,-21.172 v 0 c 13.273,-7.234 25.064,-10.73 36.757,-10.73 v 0 c 4.721,0 9.426,0.571 14.204,1.694 v 0 c 18.781,4.416 38.595,17.47 62.354,41.082 v 0 c 12.208,12.165 26.664,19.63 40.642,26.848 v 0 c 16.537,8.54 33.636,17.371 46.471,33.971 v 0 c 16.067,20.679 1.646,38.109 -13.622,56.565 v 0 c -0.26,0.313 -0.52,0.627 -0.779,0.941 v 0 c 1.081,-1.245 2.167,-2.487 3.249,-3.722 v 0 c 16.199,-18.503 31.499,-35.979 14.658,-56.844 v 0 c -13.445,-16.658 -31.232,-25.162 -48.432,-33.386 v 0 c -14.953,-7.15 -30.415,-14.543 -43.289,-27.278 v 0 C 488.859,117.41 468.292,104.036 449.02,99.933 v 0 c -16.828,-3.582 -32.777,-0.154 -51.711,11.115 v 0 c -29.497,17.556 -51.979,20.769 -71.815,23.604 v 0 c -14.511,2.074 -28.217,4.033 -42.42,11.388 v 0 c -23.289,12.063 -36.111,29.112 -39.198,52.122 v 0 c -3.001,22.359 3.199,50.485 18.953,85.987 v 0 c 7.146,16.104 3.419,42.425 -0.186,67.878 v 0 c -2.243,15.843 -4.564,32.227 -4.239,45.969 v 0 c 0.366,15.374 4.077,25.735 11.349,31.673 v 0 c 12.789,10.445 32.186,13.576 52.677,13.576 v 0 c 17.56,0 35.925,-2.3 51.61,-4.265 v 0 c 9.183,-1.15 17.114,-2.143 23.62,-2.534 v 0 c 0.923,-0.055 1.854,-0.082 2.799,-0.082 v 0 c 18.432,0.001 40.798,10.326 64.411,21.227 m -3.895,-3.489 c 13.332,5.781 27.119,11.759 41.153,16.373 v 0 c 18.625,6.149 33.385,5.43 43.869,-2.137 v 0 c 12.104,-8.732 18.263,-26.368 18.312,-52.413 v 0 c 0.005,-22.144 -1.565,-38.045 -2.95,-52.072 v 0 c -2.401,-24.293 -3.987,-40.341 4.813,-67.731 v 0 c 0.454,-1.418 0.98,-2.817 1.563,-4.202 v 0 c -0.842,1.886 -1.586,3.797 -2.204,5.741 v 0 c -8.517,26.742 -7.544,43.425 -6.197,66.514 v 0 c 0.776,13.3 1.654,28.375 1.072,48.871 v 0 c -0.774,24.51 -7.225,41.295 -19.173,49.888 v 0 c -10.501,7.553 -25.043,8.609 -43.217,3.141 v 0 c -14.06,-4.195 -27.896,-9.788 -41.279,-15.197 v 0 c -22.374,-9.042 -43.516,-17.588 -61.239,-17.587 v 0 c -0.167,0 -0.337,10e-4 -0.503,0.002 v 0 c -6.096,0.056 -13.405,0.48 -21.143,0.929 v 0 c -32.554,1.889 -77.137,4.475 -100.003,-16.003 v 0 c -16.297,-14.595 -12.478,-47.265 -8.785,-78.859 v 0 c 2.798,-23.94 5.442,-46.551 0.084,-61.999 v 0 c -11.752,-33.887 -15.316,-60.645 -10.897,-81.804 v 0 c 4.593,-21.993 17.826,-38.278 40.457,-49.784 v 0 c 14.993,-7.615 29.65,-9.735 45.169,-11.98 v 0 c 18.597,-2.689 39.675,-5.737 66.071,-18.749 v 0 c 12.159,-5.995 23.344,-8.941 34.281,-8.941 v 0 c 5.252,0.001 10.45,0.68 15.667,2.03 v 0 c 17.962,4.646 37.52,17.719 59.79,39.968 v 0 c 11.574,11.622 25.033,19.155 38.048,26.44 v 0 c 16.569,9.273 32.218,18.032 44.431,34.502 v 0 c 15.053,20.302 1.623,37.579 -12.594,55.87 v 0 c -1.199,1.542 -2.403,3.091 -3.597,4.65 v 0 c 2.004,-2.516 4.059,-5.001 6.099,-7.466 v 0 c 15.178,-18.346 29.514,-35.673 13.616,-56.137 v 0 c -12.788,-16.539 -29.854,-25.352 -46.357,-33.874 v 0 c -14.002,-7.231 -28.481,-14.708 -40.727,-26.911 v 0 C 490.892,121.61 471.132,108.584 452.414,104.184 v 0 c -16.524,-3.885 -32.166,-1.109 -50.717,9.003 v 0 c -28.029,15.279 -49.869,18.431 -69.139,21.211 v 0 c -14.946,2.157 -29.064,4.194 -43.596,11.65 v 0 c -22.909,11.757 -35.905,28.383 -39.728,50.825 v 0 c -3.698,21.71 1.177,49.131 14.903,83.831 v 0 c 6.263,15.832 3.027,40.869 -0.101,65.081 v 0 c -4.076,31.551 -8.292,64.174 7.87,78.042 v 0 c 14.044,11.969 36.177,15.187 58.816,15.187 v 0 c 14.855,0 29.926,-1.385 43.073,-2.594 v 0 c 8.322,-0.765 16.182,-1.488 22.531,-1.707 v 0 c 0.578,-0.021 1.156,-0.03 1.742,-0.03 v 0 c 18.114,0.001 39.894,9.442 62.907,19.419 m -4.095,-3.582 c 13.374,5.406 27.202,10.995 41.246,15.185 v 0 c 7.537,2.268 14.534,3.417 20.799,3.417 v 0 c 12.674,0 22.602,-4.655 29.508,-13.836 v 0 c 7.101,-9.441 11,-23.657 11.587,-42.252 v 0 c 0.582,-20.478 -0.296,-35.543 -1.071,-48.836 v 0 c -1.35,-23.131 -2.324,-39.843 6.214,-66.654 v 0 c 0.32,-1.007 0.676,-2.005 1.058,-2.997 v 0 c -0.617,1.5 -1.174,3.015 -1.656,4.549 v 0 c -8.186,25.946 -7.943,42.275 -7.607,64.873 v 0 c 0.189,12.685 0.402,27.064 -0.798,46.197 v 0 c -1.432,22.82 -8.089,38.647 -19.785,47.042 v 0 c -10.454,7.503 -24.708,8.896 -42.365,4.14 v 0 c -14.17,-3.764 -28.148,-8.986 -41.666,-14.035 v 0 c -21.349,-7.974 -41.513,-15.506 -58.692,-15.782 v 0 c -5.698,-0.092 -12.298,0.058 -19.284,0.216 v 0 c -32.009,0.727 -75.846,1.721 -98.353,-19.397 v 0 c -16.303,-15.296 -12.9,-47.972 -9.609,-79.571 v 0 c 2.346,-22.522 4.561,-43.793 0.072,-58.887 v 0 c -9.797,-32.945 -12.059,-58.968 -6.914,-79.558 v 0 c 5.362,-21.449 18.788,-37.324 41.045,-48.53 v 0 c 15.517,-7.802 30.825,-9.998 47.032,-12.323 v 0 c 17.84,-2.56 38.06,-5.461 62.719,-16.279 v 0 c 11.097,-4.868 21.369,-7.273 31.391,-7.273 v 0 c 5.9,0 11.713,0.834 17.555,2.49 v 0 c 17.395,4.932 36.112,17.64 57.221,38.85 v 0 c 10.892,11.031 23.322,18.579 35.342,25.879 v 0 c 15.892,9.651 30.904,18.768 42.5,35.188 v 0 c 14.07,19.923 1.62,37.075 -11.56,55.232 v 0 c -1.336,1.842 -2.683,3.696 -4.01,5.566 v 0 c 2.113,-2.855 4.298,-5.668 6.466,-8.457 v 0 c 7.2,-9.262 14.001,-18.011 17.227,-27.078 v 0 c 1.724,-4.846 2.273,-9.355 1.678,-13.787 v 0 c -0.665,-4.948 -2.731,-9.704 -6.315,-14.54 v 0 c -12.164,-16.404 -27.778,-25.143 -44.309,-34.395 v 0 c -13.039,-7.298 -26.521,-14.844 -38.132,-26.504 v 0 c -14.88,-14.863 -28.23,-25.417 -40.817,-32.26 v 0 c -11.933,-6.489 -23.21,-9.643 -34.478,-9.643 v 0 c -10.852,0 -21.656,2.834 -34.001,8.92 v 0 c -26.449,13.039 -47.56,16.092 -66.186,18.786 v 0 c -15.486,2.239 -30.112,4.355 -45.05,11.941 v 0 c -22.519,11.45 -35.686,27.647 -40.254,49.52 v 0 c -4.404,21.088 -0.843,47.779 10.885,81.597 v 0 c 5.386,15.532 2.738,38.186 -0.066,62.171 v 0 c -3.681,31.497 -7.488,64.065 8.66,78.526 v 0 c 7.255,6.498 16.957,11.019 29.658,13.822 v 0 c 10.192,2.248 22.26,3.34 36.901,3.341 v 0 c 11.5,0 23.01,-0.668 33.165,-1.257 v 0 c 7.743,-0.449 15.055,-0.874 21.16,-0.93 v 0 c 0.168,-0.002 0.341,-0.002 0.51,-0.002 v 0 c 17.795,0 38.966,8.557 61.379,17.615 m -63.22,-19.475 c 17.263,0.277 37.465,7.824 58.854,15.812 v 0 c 13.507,5.046 27.474,10.263 41.622,14.022 v 0 c 6.746,1.816 13.075,2.738 18.812,2.738 v 0 c 12.671,0 22.735,-4.437 29.912,-13.187 v 0 c 7.391,-9.01 11.703,-22.566 12.814,-40.295 v 0 c 1.2,-19.114 0.986,-33.481 0.798,-46.159 v 0 c -0.333,-22.368 -0.569,-38.613 7.338,-64.087 v 0 c -0.069,0.214 -0.146,0.427 -0.212,0.642 v 0 c -7.844,25.113 -8.357,41.061 -9.068,63.135 v 0 c -0.39,12.092 -0.832,25.797 -2.616,43.62 v 0 c -2.117,21.129 -8.976,35.984 -20.388,44.149 v 0 c -10.394,7.437 -24.364,9.182 -41.522,5.186 v 0 c -14.3,-3.33 -28.456,-8.162 -42.147,-12.836 v 0 C 427.769,436.927 408.795,430.45 392.31,429.768 v 0 c -5.104,-0.211 -10.8,-0.287 -16.831,-0.368 v 0 c -16.344,-0.22 -34.87,-0.468 -52.372,-3.402 v 0 c -20.343,-3.409 -35.039,-9.794 -44.925,-19.516 v 0 c -16.364,-16.093 -13.371,-48.878 -10.477,-80.584 v 0 c 1.916,-20.994 3.726,-40.825 0.104,-55.473 v 0 c -7.897,-31.939 -8.871,-57.218 -2.976,-77.279 v 0 c 6.148,-20.922 19.781,-36.398 41.677,-47.311 v 0 c 16.192,-8.054 31.595,-10.218 49.429,-12.72 v 0 c 16.926,-2.377 36.109,-5.07 58.835,-13.753 v 0 c 9.995,-3.82 19.306,-5.716 28.369,-5.716 v 0 c 6.617,0 13.102,1.01 19.621,3.025 v 0 c 16.867,5.21 34.727,17.563 54.603,37.767 v 0 c 10.147,10.315 21.466,17.796 32.412,25.03 v 0 c 15.304,10.116 29.761,19.671 40.794,36.16 v 0 c 13.094,19.569 1.621,36.623 -10.528,54.68 v 0 c -0.952,1.415 -1.907,2.839 -2.858,4.269 v 0 c 1.719,-2.458 3.481,-4.886 5.229,-7.294 v 0 c 6.668,-9.187 12.965,-17.863 15.939,-26.825 v 0 c 3.332,-10.043 1.939,-18.889 -4.383,-27.841 v 0 c -11.537,-16.339 -26.508,-25.429 -42.355,-35.054 v 0 c -12.045,-7.315 -24.501,-14.88 -35.435,-25.951 v 0 c -14.548,-14.619 -27.668,-24.995 -40.108,-31.72 v 0 c -11.809,-6.385 -23.056,-9.488 -34.384,-9.488 v 0 c -9.839,0 -20.024,2.37 -31.134,7.244 v 0 c -24.72,10.843 -44.975,13.75 -62.846,16.314 v 0 c -16.868,2.42 -31.437,4.511 -46.882,12.276 v 0 c -22.124,11.14 -35.467,26.911 -40.791,48.214 v 0 c -5.125,20.502 -2.865,46.442 6.907,79.301 v 0 c 4.517,15.187 2.296,36.505 -0.054,59.075 v 0 c -3.279,31.482 -6.669,64.036 9.458,79.168 v 0 c 8.237,7.729 19.727,13 35.126,16.117 v 0 c 15.242,3.085 31.898,3.442 43.106,3.442 v 0 c 6.845,0 13.42,-0.149 19.779,-0.294 v 0 c 5.548,-0.126 10.788,-0.245 15.549,-0.245 v 0 c 1.345,0 2.572,0.01 3.752,0.029 M 268.288,325.951 c -2.882,31.57 -5.862,64.215 10.305,80.114 v 0 c 9.798,9.634 24.39,15.966 44.612,19.355 v 0 c 17.458,2.926 35.96,3.174 52.283,3.393 v 0 c 6.035,0.081 11.734,0.158 16.846,0.369 v 0 c 16.57,0.686 35.583,7.177 55.713,14.048 v 0 c 13.676,4.669 27.818,9.497 42.089,12.821 v 0 c 5.894,1.372 11.483,2.068 16.613,2.068 v 0 h 10e-4 c 12.707,0 22.942,-4.217 30.419,-12.533 v 0 c 7.706,-8.569 12.471,-21.475 14.161,-38.359 v 0 c 1.783,-17.802 2.225,-31.497 2.614,-43.58 v 0 c 0.59,-18.339 1.05,-32.464 5.671,-51.109 v 0 c -4.832,18.549 -6.023,32.832 -7.469,50.202 v 0 c -0.972,11.651 -2.07,24.856 -4.479,41.665 v 0 c -2.79,19.481 -9.859,33.377 -21.014,41.302 v 0 c -10.351,7.356 -24.03,9.437 -40.655,6.188 v 0 c -14.708,-2.874 -29.31,-7.379 -43.433,-11.735 v 0 c -18.54,-5.717 -36.052,-11.119 -51.597,-12.154 v 0 c -4.222,-0.282 -8.754,-0.507 -13.554,-0.745 v 0 c -16.315,-0.811 -34.808,-1.73 -52.263,-5.323 v 0 c -20.281,-4.175 -34.936,-11.149 -44.802,-21.324 v 0 c -16.46,-16.974 -13.924,-49.888 -11.42,-81.768 v 0 c -0.207,2.35 -0.423,4.72 -0.641,7.105 m 12.553,74.185 c 9.768,10.072 24.307,16.983 44.449,21.13 v 0 c 17.402,3.582 35.867,4.5 52.157,5.309 v 0 c 4.803,0.239 9.339,0.464 13.567,0.746 v 0 c 15.624,1.04 33.174,6.453 51.754,12.184 v 0 c 14.105,4.351 28.69,8.848 43.362,11.716 v 0 c 4.991,0.976 9.781,1.47 14.24,1.471 v 0 h 0.002 c 12.769,0 23.205,-4.009 31.017,-11.914 v 0 c 8.051,-8.149 13.3,-20.42 15.599,-36.471 v 0 c 2.404,-16.789 3.503,-29.983 4.473,-41.623 v 0 c 1.233,-14.81 2.281,-27.378 5.551,-42.254 v 0 c -3.441,14.344 -5.139,26.581 -7.023,40.167 v 0 c -1.597,11.523 -3.408,24.585 -6.568,40.926 v 0 c -3.408,17.623 -10.548,30.463 -21.221,38.166 v 0 c -10.375,7.487 -23.903,10.003 -40.209,7.479 v 0 c -15.389,-2.384 -30.717,-6.598 -45.54,-10.674 v 0 c -16.709,-4.595 -32.491,-8.935 -46.824,-10.251 v 0 c -2.905,-0.267 -5.899,-0.52 -9.07,-0.79 v 0 c -16.466,-1.398 -35.127,-2.982 -52.768,-7.276 v 0 c -20.503,-4.99 -35.312,-12.654 -45.272,-23.43 v 0 c -7.508,-8.122 -11.851,-20.194 -13.279,-36.906 v 0 c -1.015,-11.868 -0.504,-24.866 0.287,-37.806 v 0 c -2.462,31.372 -4.734,63.55 11.316,80.101 m -10.82,-42.362 c 1.413,16.531 5.689,28.45 13.074,36.44 v 0 c 9.851,10.658 24.532,18.246 44.88,23.199 v 0 c 17.582,4.279 36.213,5.861 52.649,7.256 v 0 c 3.172,0.27 6.167,0.523 9.076,0.791 v 0 c 14.401,1.322 30.216,5.672 46.96,10.275 v 0 c 14.802,4.071 30.108,8.28 45.451,10.656 v 0 c 4.015,0.621 7.916,0.936 11.599,0.937 v 0 h 0.002 c 12.881,0 23.568,-3.81 31.766,-11.322 v 0 c 8.447,-7.741 14.224,-19.392 17.172,-34.632 v 0 c 3.156,-16.321 4.964,-29.371 6.561,-40.885 v 0 c 1.622,-11.706 3.106,-22.41 5.685,-34.324 v 0 c -2.528,10.413 -4.399,19.882 -6.334,29.681 v 0 c -2.506,12.691 -5.098,25.814 -9.387,42.795 v 0 c -4.093,16.202 -11.549,28.168 -22.162,35.563 v 0 c -10.317,7.189 -23.448,9.959 -39.029,8.236 v 0 c -16.492,-1.824 -32.976,-5.816 -48.918,-9.675 v 0 c -14.441,-3.496 -28.083,-6.799 -40.778,-8.285 v 0 l -2.653,-0.309 c -32.862,-3.829 -77.867,-9.073 -100.95,-35.291 v 0 c -7.707,-8.754 -12.242,-21.456 -13.862,-38.833 v 0 c -0.926,-9.924 -0.853,-20.508 -0.439,-31.173 v 0 c -0.83,13.308 -1.405,26.715 -0.363,38.9 m 1.685,-7.809 c 1.601,17.183 6.065,29.721 13.644,38.329 v 0 c 10.119,11.492 25.255,19.919 46.277,25.763 v 0 c 18.136,5.041 37.248,7.269 54.11,9.234 v 0 l 2.654,0.309 c 12.749,1.492 26.415,4.801 40.885,8.304 v 0 c 15.913,3.853 32.369,7.837 48.805,9.655 v 0 c 2.935,0.325 5.823,0.489 8.588,0.489 v 0 h 0.001 c 13.059,0 24.067,-3.619 32.715,-10.757 v 0 c 8.91,-7.352 15.279,-18.411 18.93,-32.867 v 0 c 4.283,-16.958 6.873,-30.07 9.377,-42.749 v 0 c 1.617,-8.183 3.188,-16.136 5.132,-24.599 v 0 c -1.244,4.746 -2.41,9.32 -3.559,13.834 v 0 c -4.032,15.815 -7.839,30.754 -14.337,50.848 v 0 c -4.781,14.784 -12.556,25.875 -23.107,32.964 v 0 c -10.256,6.891 -22.99,9.918 -37.847,8.99 v 0 c -18.298,-1.141 -36.659,-5.034 -54.416,-8.8 v 0 c -11.45,-2.428 -22.266,-4.722 -32.609,-6.194 v 0 c -17.764,-2.528 -36.617,-5.664 -54.145,-11.447 v 0 c -20.71,-6.833 -35.74,-16.076 -45.95,-28.257 v 0 c -8.057,-9.614 -12.848,-23.257 -14.647,-41.708 v 0 c -0.775,-7.952 -0.959,-16.23 -0.848,-24.605 v 0 c -0.489,11.379 -0.638,22.706 0.347,33.264 m 1.483,-8.754 c 1.779,18.246 6.496,31.713 14.421,41.168 v 0 c 10.088,12.038 24.972,21.182 45.503,27.955 v 0 c 17.455,5.759 36.257,8.886 53.974,11.407 v 0 c 10.377,1.477 21.209,3.775 32.676,6.205 v 0 c 17.722,3.759 36.047,7.645 54.273,8.782 v 0 c 1.708,0.106 3.412,0.16 5.07,0.16 v 0 h 0.003 c 13.323,0 24.742,-3.444 33.936,-10.234 v 0 c 9.462,-6.989 16.509,-17.485 20.944,-31.2 v 0 c 6.49,-20.063 10.292,-34.987 14.319,-50.787 v 0 c 0.777,-3.05 1.562,-6.128 2.372,-9.268 v 0 c -5.622,18.947 -10.999,35.511 -19.999,57.474 v 0 c -5.477,13.368 -13.571,23.585 -24.055,30.368 v 0 c -10.001,6.47 -22.053,9.746 -35.84,9.746 v 0 c -0.272,0 -0.548,-0.001 -0.821,-0.002 v 0 c -21.436,-0.201 -43.029,-4.312 -63.911,-8.288 v 0 c -7.107,-1.353 -13.818,-2.63 -20.444,-3.742 v 0 c -21.536,-3.609 -38.332,-7.974 -52.858,-13.736 v 0 c -9.084,-3.603 -17.221,-7.785 -24.183,-12.43 v 0 c -7.77,-5.184 -14.346,-11.119 -19.546,-17.641 v 0 c -8.697,-10.912 -13.853,-26.106 -15.761,-46.449 v 0 c -0.517,-5.515 -0.78,-11.128 -0.869,-16.79 v 0 c -0.192,9.301 -0.061,18.508 0.796,27.302 m 1.154,-10.614 c 1.889,20.127 6.968,35.131 15.53,45.873 v 0 c 5.129,6.435 11.622,12.295 19.299,17.415 v 0 c 6.899,4.603 14.967,8.749 23.981,12.325 v 0 c 14.452,5.733 31.179,10.077 52.636,13.673 v 0 c 6.638,1.114 13.356,2.392 20.467,3.746 v 0 c 20.835,3.967 42.38,8.069 63.719,8.269 v 0 c 0.27,0.002 0.54,0.003 0.808,0.003 v 0 c 27.956,0 48.321,-13.638 58.893,-39.44 v 0 c 8.348,-20.374 13.575,-36.102 18.78,-53.412 v 0 c -1.389,4.021 -2.781,7.843 -4.204,11.565 v 0 c -4.946,12.926 -10.608,25.437 -17.817,39.373 v 0 c -12.259,23.697 -33.172,36.93 -60.481,38.269 v 0 c -27.685,1.358 -56.371,-4.179 -81.682,-9.063 v 0 c -19.639,-3.79 -36.988,-9.185 -51.565,-16.034 v 0 c -17.893,-8.407 -31.86,-19.133 -41.514,-31.877 v 0 c -10.05,-13.267 -15.757,-31.532 -17.448,-55.837 v 0 c -0.124,-1.796 -0.218,-3.602 -0.299,-5.412 v 0 c 0.017,6.946 0.266,13.832 0.897,20.564 m 0.586,-15.235 c 1.674,24.068 7.304,42.126 17.21,55.203 v 0 c 9.537,12.59 23.355,23.195 41.072,31.52 v 0 c 14.489,6.807 31.744,12.172 51.286,15.942 v 0 c 22.465,4.336 47.928,9.25 72.784,9.25 v 0 h 10e-4 c 2.924,0 5.821,-0.07 8.615,-0.206 v 0 c 26.861,-1.318 47.431,-14.329 59.483,-37.629 v 0 c 9.094,-17.576 15.428,-32.322 20.849,-47.569 v 0 c -6.349,15.614 -14.008,29.911 -24.04,45.226 v 0 c -13.694,20.907 -34.527,33.504 -60.248,36.428 v 0 c -22.609,2.572 -48.453,0.577 -79.005,-6.096 v 0 c -8.949,-1.954 -17.639,-4.44 -25.832,-7.389 v 0 c -8.706,-3.133 -16.927,-6.818 -24.435,-10.951 v 0 c -16.579,-9.13 -29.804,-20.459 -39.306,-33.674 v 0 c -5.359,-7.452 -9.67,-16.267 -12.813,-26.202 v 0 c -2.846,-8.994 -4.807,-19.132 -5.829,-30.133 v 0 c -0.079,-0.857 -0.151,-1.725 -0.219,-2.597 v 0 c 0.087,2.975 0.223,5.939 0.427,8.877 m 1.074,-6.399 c 2.13,22.941 8.322,41.682 18.405,55.703 v 0 c 9.39,13.058 22.472,24.261 38.882,33.297 v 0 c 14.595,8.036 31.39,14.163 49.92,18.21 v 0 c 22.025,4.812 41.286,7.15 58.884,7.151 v 0 h 0.001 c 6.803,0 13.431,-0.362 19.702,-1.075 v 0 c 25.327,-2.88 45.838,-15.278 59.316,-35.855 v 0 c 9.128,-13.935 16.283,-27.022 22.272,-41.04 v 0 c -0.9,1.849 -1.824,3.679 -2.778,5.477 v 0 c -6.14,11.585 -13.554,22.502 -22.662,33.377 v 0 c -7.657,9.142 -16.719,16.745 -26.933,22.597 v 0 c -10.074,5.772 -21.205,9.807 -33.084,11.994 v 0 c -9.498,1.781 -19.457,2.676 -29.704,2.676 v 0 c -2.725,0 -5.471,-0.063 -8.234,-0.19 v 0 c -12.565,-0.577 -25.482,-2.466 -38.392,-5.616 v 0 c -8.791,-2.145 -17.383,-4.973 -25.535,-8.406 v 0 C 347.808,403.787 339.934,399.661 332.66,395 v 0 c -7.431,-4.761 -14.311,-10.13 -20.451,-15.958 v 0 c -6.316,-5.996 -11.927,-12.552 -16.676,-19.489 v 0 c -5.281,-7.776 -9.653,-16.556 -12.995,-26.095 v 0 c -3.173,-9.056 -5.448,-18.88 -6.763,-29.2 v 0 c -0.111,-0.869 -0.206,-1.746 -0.303,-2.622 v 0 c 0.134,2.493 0.31,4.938 0.531,7.327 M 428.25,420.089 h 10e-4 c 10.131,0 20.029,-0.892 29.426,-2.654 v 0 c 23.69,-4.361 44.163,-16.158 59.205,-34.117 v 0 c 9.411,-11.236 17.153,-22.765 23.477,-35.049 v 0 c -25.431,43.569 -72.462,70.588 -122.923,70.586 v 0 c -7.61,-0.001 -15.303,-0.617 -23.009,-1.883 v 0 c 11.448,2.068 22.779,3.117 33.823,3.117 M 372.171,142.811 c -14.353,4.87 -27.768,11.975 -39.873,21.118 v 0 c -12.226,9.235 -22.789,20.306 -31.393,32.906 v 0 c -8.901,13.034 -15.518,27.444 -19.665,42.828 v 0 c -4.955,18.375 -6.162,37.171 -3.59,55.864 v 0 c 2.486,18.055 8.375,35.257 17.505,51.129 v 0 c 9.13,15.871 21.04,29.61 35.4,40.835 v 0 c 14.865,11.621 31.72,20.025 50.095,24.98 v 0 c 12.047,3.248 24.424,4.896 36.793,4.896 v 0 h 0.001 c 15.34,0 30.51,-2.508 45.089,-7.455 v 0 c 14.351,-4.87 27.764,-11.975 39.869,-21.118 v 0 c 12.227,-9.236 22.788,-20.308 31.392,-32.907 v 0 c 8.901,-13.035 15.516,-27.443 19.664,-42.827 v 0 c 4.955,-18.375 6.162,-37.169 3.59,-55.863 v 0 c -2.485,-18.056 -8.376,-35.258 -17.505,-51.129 v 0 c -9.13,-15.871 -21.04,-29.61 -35.4,-40.835 v 0 c -14.866,-11.621 -31.72,-20.025 -50.095,-24.981 v 0 c -12.05,-3.249 -24.427,-4.897 -36.786,-4.897 v 0 c -15.342,0 -30.512,2.51 -45.091,7.456 M 277.15,304.082 c 2.7,21.185 9.271,39.586 19.528,54.687 v 0 c 9.33,13.628 21.688,25.425 36.73,35.064 v 0 c 13.906,8.91 29.531,15.618 46.464,19.965 v 0 C 323.848,398.525 284.759,351.834 276.49,297.865 v 0 c 0.184,2.091 0.399,4.167 0.66,6.217 M 414.984,119.909 c -22.788,8.706 -42.008,11.405 -58.964,13.786 v 0 c -17.783,2.497 -33.141,4.653 -49.248,12.665 v 0 c -21.743,10.837 -35.277,26.194 -41.376,46.951 v 0 c -5.865,19.959 -4.889,45.138 2.982,76.973 v 0 c 2.105,8.512 2.388,18.735 1.883,29.904 v 0 c 0.695,-12.344 0.742,-23.74 -1.12,-33.23 v 0 c -6.06,-30.872 -5.762,-55.395 0.91,-74.972 v 0 c 6.955,-20.407 20.812,-35.493 42.362,-46.119 v 0 c 17.074,-8.402 33.522,-10.617 52.567,-13.181 v 0 c 15.785,-2.125 33.676,-4.533 54.207,-11.165 v 0 c 8.766,-2.831 16.995,-4.246 24.993,-4.246 v 0 c 7.459,0 14.716,1.232 22.016,3.689 v 0 c 16.296,5.485 33.308,17.471 52.011,36.642 v 0 c 9.333,9.567 19.516,16.9 29.362,23.992 v 0 c 14.773,10.638 28.727,20.688 39.208,37.323 v 0 c 12.128,19.248 1.621,36.247 -9.503,54.244 v 0 c -0.686,1.111 -1.375,2.226 -2.062,3.347 v 0 c 1.434,-2.198 2.896,-4.373 4.347,-6.531 v 0 c 6.14,-9.127 11.94,-17.748 14.661,-26.619 v 0 c 3.047,-9.93 1.733,-18.639 -4.134,-27.408 v 0 c -10.968,-16.391 -25.377,-25.915 -40.631,-35.997 v 0 c -10.971,-7.252 -22.314,-14.749 -32.506,-25.107 v 0 C 502.775,140.44 489.89,130.215 477.554,123.585 v 0 c -11.711,-6.293 -22.976,-9.353 -34.439,-9.353 v 0 c -8.932,0 -18.133,1.857 -28.131,5.677 M 558.507,295.67 c 3.8,-17.558 5.419,-35.683 0.352,-53.34 v 0 c -3.242,-11.299 -7.922,-21.996 -14.308,-32.698 v 0 c -5.746,-9.635 -12.781,-19.097 -21.503,-28.927 v 0 c -18.785,-21.176 -40.885,-34.972 -65.781,-41.092 v 0 c 68.383,19.935 110.777,86.98 101.24,156.057 M 450.036,136.655 c 7.161,1.292 14.192,3.21 20.899,5.7 v 0 c 6.635,2.462 13.128,5.548 19.302,9.174 v 0 c 6.109,3.589 12.069,7.801 17.714,12.52 v 0 c 5.589,4.672 11.017,9.966 16.135,15.735 v 0 c 8.781,9.897 15.865,19.427 21.656,29.137 v 0 c 3.121,5.229 5.897,10.588 8.249,15.926 v 0 c 2.459,5.577 4.546,11.33 6.201,17.101 v 0 c 3.024,10.537 3.927,21.841 2.76,34.56 v 0 c -0.478,5.208 -1.29,10.633 -2.503,16.626 v 0 c 5.068,-18.494 8.473,-36.247 2.326,-54.053 v 0 c -8.682,-25.151 -24.759,-44.223 -40.483,-61.602 v 0 c -11.544,-12.759 -23.345,-22.33 -36.076,-29.261 v 0 c -12.79,-6.962 -26.104,-11.033 -40.705,-12.445 v 0 c -0.649,-0.064 -1.292,-0.124 -1.932,-0.183 v 0 c 2.147,0.321 4.301,0.675 6.457,1.065 m -4.401,-2.163 c 7.306,0.707 14.468,2.122 21.283,4.206 v 0 c 6.813,2.084 13.514,4.906 19.913,8.39 v 0 c 6.379,3.472 12.677,7.719 18.718,12.622 v 0 c 6.003,4.875 11.958,10.562 17.698,16.906 v 0 c 7.572,8.371 16.316,18.375 23.747,29.124 v 0 c 7.571,10.948 13.131,21.718 16.998,32.922 v 0 c 5.949,17.232 3.147,34.291 -1.533,51.964 v 0 c 6.205,-18.734 11.539,-36.535 4.23,-54.813 v 0 c -9,-22.507 -24.259,-38.985 -40.412,-56.429 v 0 c -1.57,-1.694 -3.152,-3.403 -4.744,-5.132 v 0 C 496.442,146.98 470.918,134.035 441.21,133.515 v 0 c -3.829,-0.067 -7.144,-0.113 -10.166,-0.14 v 0 c 4.695,0.259 9.547,0.629 14.591,1.117 m -26.238,-12.318 c -20.589,6.65 -38.513,9.064 -54.325,11.193 v 0 c -18.986,2.556 -35.382,4.763 -52.355,13.116 v 0 c -21.38,10.541 -35.123,25.498 -42.016,45.725 v 0 c -6.633,19.459 -6.923,43.867 -0.886,74.619 v 0 c 1.251,6.376 1.646,13.595 1.564,21.371 v 0 c 0.29,-8.965 0.158,-17.33 -0.906,-24.704 v 0 c -8.671,-60.084 6.532,-97.45 47.841,-117.595 v 0 c 18.257,-8.884 36.109,-11.116 56.779,-13.702 v 0 c 15.01,-1.878 30.532,-3.819 48.505,-8.516 v 0 c 7.412,-1.935 14.43,-2.907 21.247,-2.907 v 0 c 8.452,0 16.594,1.494 24.79,4.494 v 0 c 15.72,5.755 31.883,17.369 49.412,35.507 v 0 c 8.41,8.701 17.379,15.751 26.052,22.568 v 0 c 14.352,11.28 27.907,21.935 37.881,38.87 v 0 c 11.179,18.977 1.626,35.98 -8.49,53.982 v 0 c -0.441,0.786 -0.885,1.575 -1.327,2.367 v 0 c 1.168,-1.934 2.351,-3.852 3.527,-5.757 v 0 c 5.619,-9.09 10.925,-17.676 13.399,-26.479 v 0 c 2.765,-9.844 1.529,-18.436 -3.893,-27.039 v 0 c -10.41,-16.521 -24.311,-26.534 -39.028,-37.132 v 0 c -9.87,-7.109 -20.078,-14.46 -29.452,-24.07 v 0 C 503.842,143.864 491.133,133.77 478.858,127.226 v 0 c -11.681,-6.226 -23.03,-9.254 -34.699,-9.254 v 0 c -7.908,0 -16.007,1.375 -24.762,4.202 m 21.833,10.155 c 30.055,0.526 55.849,13.592 81.177,41.119 v 0 c 1.591,1.729 3.191,3.458 4.74,5.131 v 0 c 8.304,8.967 16.147,17.437 23.108,26.566 v 0 c 7.816,10.252 13.389,19.858 17.536,30.228 v 0 c 7.087,17.723 2.585,34.849 -3.258,52.746 v 0 c 0.114,-0.294 0.229,-0.59 0.342,-0.882 v 0 c 7.231,-18.634 14.061,-36.234 5.723,-54.707 v 0 c -8.904,-19.729 -22.673,-33.706 -37.248,-48.504 v 0 c -4.106,-4.168 -8.351,-8.478 -12.577,-13.004 v 0 C 507.718,157.038 495.077,147.07 482.128,140.543 v 0 c -12.627,-6.363 -25.578,-9.456 -39.594,-9.456 v 0 c -1.853,0 -3.752,0.055 -5.646,0.164 v 0 c -5.54,0.319 -10.972,0.582 -16.225,0.835 v 0 c -0.655,0.03 -1.304,0.063 -1.956,0.094 v 0 c 1.86,-0.02 3.718,-0.029 5.571,-0.029 v 0 c 5.714,0 11.389,0.081 16.952,0.178 m 38.738,5.959 c 13.979,6.518 27.587,16.983 41.599,31.992 v 0 c 4.217,4.515 8.456,8.82 12.557,12.983 v 0 c 14.646,14.869 28.48,28.914 37.465,48.822 v 0 c 8.221,18.212 2.088,35.421 -4.921,53.532 v 0 c 0.421,-0.949 0.842,-1.894 1.263,-2.834 v 0 c 8.085,-18.125 15.723,-35.243 6.573,-53.549 v 0 c -9.101,-18.206 -22.377,-30.639 -36.433,-43.802 v 0 c -5.924,-5.55 -12.051,-11.287 -18.06,-17.642 v 0 C 506.827,153.85 494.31,143.936 481.74,137.479 v 0 c -12.143,-6.237 -24.409,-9.268 -37.5,-9.268 v 0 c -3.786,0 -7.72,0.259 -11.696,0.772 v 0 c -9.377,1.206 -18.234,2.031 -26.807,2.781 v 0 c 4.856,-0.28 9.808,-0.52 14.873,-0.764 v 0 c 5.25,-0.253 10.68,-0.515 16.215,-0.834 v 0 c 1.923,-0.11 3.826,-0.166 5.71,-0.166 v 0 c 13.214,0 25.512,2.729 37.433,8.288 m -3.445,-4.361 c 14.558,6.27 29.017,17.126 44.204,33.185 v 0 c 5.99,6.332 12.105,12.06 18.019,17.599 v 0 c 14.122,13.226 27.461,25.719 36.641,44.083 v 0 c 9.356,18.72 1.632,36.042 -6.551,54.381 v 0 c 0.683,-1.372 1.372,-2.737 2.056,-4.093 v 0 c 9.021,-17.884 17.542,-34.776 7.515,-53.154 v 0 c -9.453,-17.322 -22.71,-28.703 -36.746,-40.754 v 0 c -7.402,-6.355 -15.058,-12.928 -22.414,-20.618 v 0 c -13.371,-13.976 -25.879,-23.904 -38.24,-30.351 v 0 c -11.863,-6.186 -23.676,-9.194 -36.114,-9.194 v 0 c -5.425,0 -10.892,0.557 -16.713,1.701 v 0 c -12.917,2.54 -24.675,3.983 -35.993,5.25 v 0 c 2.981,-0.272 6.004,-0.534 9.078,-0.8 v 0 c 9.925,-0.858 20.189,-1.746 31.153,-3.158 v 0 c 4.005,-0.516 7.925,-0.774 11.775,-0.774 v 0 c 11.268,0 21.932,2.217 32.33,6.697 m -3.445,-4.339 c 15.139,6.017 30.45,17.254 46.81,34.355 v 0 c 7.326,7.659 14.965,14.217 22.351,20.559 v 0 c 14.099,12.104 27.415,23.538 36.944,41.001 v 0 c 10.252,18.787 1.629,35.88 -7.499,53.978 v 0 c -0.221,0.435 -0.441,0.873 -0.662,1.31 v 0 c 0.923,-1.672 1.856,-3.333 2.783,-4.982 v 0 c 5.104,-9.085 9.926,-17.665 12.155,-26.431 v 0 c 2.491,-9.795 1.33,-18.301 -3.656,-26.767 v 0 c -9.9,-16.806 -23.399,-27.416 -37.69,-38.648 v 0 c -8.694,-6.835 -17.685,-13.902 -26.131,-22.643 v 0 c -13.604,-14.074 -26.184,-24.065 -38.459,-30.546 v 0 c -11.722,-6.188 -23.243,-9.196 -35.225,-9.196 v 0 c -6.757,0 -13.626,0.937 -21.002,2.865 v 0 c -18.024,4.708 -34.271,6.74 -48.607,8.534 v 0 c -0.77,0.097 -1.535,0.192 -2.298,0.288 v 0 c 4.533,-0.565 9.172,-1.078 13.948,-1.602 v 0 c 12.92,-1.423 26.281,-2.894 41.168,-5.821 v 0 c 5.763,-1.133 11.358,-1.701 16.823,-1.701 v 0 c 9.754,0 19.096,1.81 28.247,5.447 m -154.42,17.017 c -40.958,19.973 -56.021,57.079 -47.406,116.776 v 0 c 0.675,4.682 0.973,9.758 1.031,15.121 v 0 c 0.135,-6.553 0.043,-12.762 -0.478,-18.473 v 0 c -1.275,-13.999 -1.232,-26.932 0.13,-38.441 v 0 c 1.392,-11.767 4.215,-22.486 8.387,-31.859 v 0 c 4.246,-9.537 10.044,-18.027 17.233,-25.235 v 0 c 7.283,-7.302 16.253,-13.547 26.66,-18.564 v 0 c 15.413,-7.412 30.776,-10.387 47.581,-12.528 v 0 c -19.176,2.419 -36.002,4.866 -53.138,13.203 m 5.942,0.124 c -10.316,4.972 -19.205,11.16 -26.416,18.39 v 0 c -7.114,7.131 -12.851,15.533 -17.052,24.97 v 0 c -4.136,9.293 -6.934,19.925 -8.317,31.604 v 0 c -1.354,11.448 -1.397,24.318 -0.127,38.256 v 0 c 0.277,3.045 0.435,6.228 0.502,9.527 v 0 c 0.095,-4.481 0.098,-8.799 -0.052,-12.91 v 0 c -0.489,-13.41 0.27,-25.877 2.258,-37.054 v 0 c 2.022,-11.365 5.379,-21.759 9.976,-30.895 v 0 c 4.665,-9.271 10.757,-17.539 18.104,-24.574 v 0 c 7.442,-7.124 16.405,-13.207 26.641,-18.082 v 0 c 12.45,-5.915 25.029,-9.132 38.293,-11.218 v 0 c -15.374,2.107 -29.588,5.146 -43.81,11.986 m 5.941,0.123 c -10.141,4.83 -19.017,10.853 -26.382,17.905 v 0 c -7.267,6.957 -13.291,15.133 -17.906,24.303 v 0 c -4.555,9.05 -7.88,19.355 -9.886,30.625 v 0 c -1.975,11.107 -2.73,23.504 -2.243,36.846 v 0 c 0.054,1.477 0.086,2.983 0.104,4.51 v 0 c 0.106,-2.701 0.192,-5.348 0.243,-7.936 v 0 c 0.255,-12.82 1.709,-24.822 4.324,-35.67 v 0 c 2.64,-10.959 6.533,-21.029 11.57,-29.933 v 0 c 5.092,-9 11.489,-17.044 19.012,-23.909 v 0 c 7.608,-6.944 16.572,-12.865 26.641,-17.6 v 0 c 11.23,-5.269 22.698,-8.498 34.649,-10.594 v 0 c -13.964,2.063 -27.131,5.279 -40.126,11.453 m 5.939,0.124 c -9.97,4.688 -18.842,10.549 -26.372,17.42 v 0 c -7.436,6.787 -13.761,14.741 -18.797,23.642 v 0 c -9.879,17.46 -15.172,39.188 -15.74,64.587 v 0 c 10e-4,-0.018 0.002,-0.034 0.004,-0.051 v 0 c 0.077,-0.983 0.153,-1.959 0.23,-2.929 v 0 c 1.925,-24.59 8.486,-45.877 19.499,-63.269 v 0 c 11.142,-17.594 26.826,-31.169 46.615,-40.351 v 0 c 7.254,-3.36 14.754,-6 22.927,-8.075 v 0 c 2.773,-0.704 5.605,-1.335 8.515,-1.901 v 0 c -12.777,2.064 -24.976,5.342 -36.881,10.927 m 5.938,0.125 c -19.579,9.085 -35.093,22.513 -46.111,39.91 v 0 c -9.782,15.449 -16.016,34.016 -18.578,55.276 v 0 c 3.549,-21.779 11.096,-40.96 22.467,-57.059 v 0 c 5.96,-8.439 12.999,-16.027 20.92,-22.554 v 0 c 7.97,-6.565 16.955,-12.157 26.704,-16.617 v 0 c 9.048,-4.135 18.589,-7.246 28.846,-9.406 v 0 c -12.611,2.206 -23.858,5.638 -34.248,10.45 m 5.938,0.126 c -19.358,8.856 -35.207,21.892 -47.109,38.743 v 0 c -9.348,13.237 -16.089,28.586 -20.12,45.773 v 0 c 2.014,-7.166 4.53,-14.085 7.526,-20.666 v 0 c 4.428,-9.725 9.944,-18.82 16.392,-27.031 v 0 c 6.395,-8.142 13.769,-15.494 21.917,-21.848 v 0 c 8.154,-6.36 17.158,-11.781 26.76,-16.11 v 0 c 7.184,-3.237 14.772,-5.891 22.552,-7.886 v 0 c 1.149,-0.294 2.309,-0.57 3.474,-0.839 v 0 c -11.29,2.159 -21.701,5.436 -31.392,9.864 m 5.935,0.126 c -19.173,8.645 -35.375,21.278 -48.155,37.55 v 0 c -8.574,10.917 -15.343,23.145 -20.239,36.529 v 0 c 17.728,-42.577 54.606,-72.901 97.569,-83.461 v 0 c -10.201,2.094 -19.95,5.225 -29.175,9.382" /></g></g></g></g><g
       id="g46"><g
         clip-path="url(#clipPath52)"
         id="g48"><g
           transform="translate(460.9355,271.6498)"
           id="g54"><path
             id="path56"
             style="fill:#ffffff;fill-opacity:1;fill-rule:nonzero;stroke:none"
             d="m 0,0 -22.432,33.407 h -12.899 v -56.08 h 16.184 V 4.085 L -1.683,-22.673 H 1.683 L 19.147,4.085 v -26.758 h 16.184 v 56.08 H 22.433 Z M 240.669,0.56 250.844,18.827 260.938,0.56 Z m 18.827,32.847 h -17.385 l -33.568,-56.08 h 19.147 l 5.289,9.453 h 35.651 l 5.287,-9.453 h 19.147 z m -113.043,-21.23 -0.08,8.252 h 26.439 c 3.124,0 4.646,-1.282 4.646,-4.166 0,-2.885 -1.522,-4.086 -4.646,-4.086 z m 23.394,-7.691 h 5.768 c 10.976,0 18.026,5.207 18.026,14.1 0,8.893 -6.729,14.821 -18.026,14.821 h -45.264 v -56.08 h 16.183 l -0.081,22.592 h 10.415 c 2.965,0 5.448,-0.561 7.371,-1.762 1.923,-1.202 3.845,-3.205 5.849,-6.089 2.003,-2.964 4.887,-7.851 8.732,-14.741 h 19.708 c -3.205,6.65 -6.089,11.777 -8.652,15.462 C 184.748,0.16 178.9,3.925 169.847,4.486 M -69.141,4.085 c 0,-8.893 -5.367,-13.619 -14.42,-13.619 -9.053,0 -14.421,4.726 -14.421,13.619 v 29.322 h -16.183 V 6.488 c 0,-23.232 11.457,-30.443 30.604,-30.443 19.147,0 30.603,7.211 30.603,30.443 V 33.407 H -69.141 Z M 95.579,-8.813 H 70.103 l -0.081,8.251 h 25.557 c 2.804,0 4.647,-1.442 4.647,-4.326 0,-2.643 -1.523,-3.925 -4.647,-3.925 m -1.763,28.44 c 2.884,0 4.647,-0.961 4.647,-3.765 0,-2.804 -1.683,-3.685 -4.647,-3.685 H 70.022 l -0.08,7.45 z M 99.104,5.848 c 9.854,0.56 15.542,4.727 15.542,12.738 0,4.406 -1.602,8.012 -4.726,10.736 -3.205,2.723 -7.611,4.085 -13.3,4.085 H 53.759 v -56.08 h 44.624 c 10.815,0 18.106,6.009 18.106,14.902 0,8.572 -6.569,13.378 -17.385,13.619 m -404.989,6.329 h -23.153 v 8.252 h 23.153 c 3.125,0 4.647,-1.362 4.647,-4.166 0,-2.885 -1.522,-4.086 -4.647,-4.086 m 2.004,21.23 h -41.26 v -56.08 h 16.183 v 21.871 h 25.077 c 11.215,0 18.826,6.089 18.826,17.065 0,3.124 -0.801,6.008 -2.323,8.653 -3.124,5.207 -9.053,8.491 -16.503,8.491 m 32.447,-56.08 h 56.481 v 13.779 h -40.297 v 8.172 h 39.576 v 13.059 h -39.576 v 7.29 h 40.297 v 13.78 h -56.481 z m 122.658,25.156 -36.613,30.924 h -12.738 v -56.08 h 16.183 V 8.251 l 36.532,-30.924 h 12.819 v 56.08 h -16.183 z" /></g></g></g></g></svg>
