<?xml version="1.0" encoding="UTF-8" standalone="no"?>
<svg
   xmlns:dc="http://purl.org/dc/elements/1.1/"
   xmlns:cc="http://creativecommons.org/ns#"
   xmlns:rdf="http://www.w3.org/1999/02/22-rdf-syntax-ns#"
   xmlns:svg="http://www.w3.org/2000/svg"
   xmlns="http://www.w3.org/2000/svg"
   xmlns:sodipodi="http://sodipodi.sourceforge.net/DTD/sodipodi-0.dtd"
   xmlns:inkscape="http://www.inkscape.org/namespaces/inkscape"
   viewBox="0 0 850.93997 509.60717"
   height="509.60718"
   width="850.94"
   xml:space="preserve"
   id="svg2"
   version="1.1"
   sodipodi:docname="penumbra-light-bw.svg"
   inkscape:version="1.0.2 (e86c870879, 2021-01-15)"><sodipodi:namedview
     pagecolor="#ffffff"
     bordercolor="#666666"
     borderopacity="1"
     objecttolerance="10"
     gridtolerance="10"
     guidetolerance="10"
     inkscape:pageopacity="0"
     inkscape:pageshadow="2"
     inkscape:window-width="1873"
     inkscape:window-height="2047"
     id="namedview90"
     showgrid="false"
     fit-margin-top="0"
     fit-margin-left="0"
     fit-margin-right="0"
     fit-margin-bottom="0"
     inkscape:zoom="1.0331982"
     inkscape:cx="412.53666"
     inkscape:cy="262.58904"
     inkscape:window-x="1350"
     inkscape:window-y="36"
     inkscape:window-maximized="0"
     inkscape:current-layer="svg2" /><metadata
     id="metadata8"><rdf:RDF><cc:Work
         rdf:about=""><dc:format>image/svg+xml</dc:format><dc:type
           rdf:resource="http://purl.org/dc/dcmitype/StillImage" /><dc:title></dc:title></cc:Work></rdf:RDF></metadata><defs
     id="defs6"><clipPath
       id="clipPath18"
       clipPathUnits="userSpaceOnUse"><path
         id="path16"
         d="M 0,566.929 H 850.394 V 0 H 0 Z" /></clipPath></defs><g
     transform="matrix(1.3333333,0,0,-1.3333333,-154.39266,640.5417)"
     id="g10"><g
       id="g12"><g
         clip-path="url(#clipPath18)"
         id="g14"><g
           transform="translate(605.4658,202.6909)"
           id="g20"><path
             id="path22"
             style="fill:#000000;fill-opacity:1;fill-rule:nonzero;stroke:none"
             d="m 0,0 c -13.445,-16.658 -31.231,-25.162 -48.432,-33.386 -14.953,-7.15 -30.415,-14.543 -43.289,-27.278 -24.885,-24.616 -45.453,-37.991 -64.725,-42.094 -16.828,-3.582 -32.777,-0.154 -51.711,11.115 -29.497,17.556 -51.979,20.769 -71.815,23.604 -14.51,2.074 -28.216,4.033 -42.419,11.389 -23.29,12.062 -36.112,29.111 -39.199,52.121 -3,22.359 3.199,50.486 18.953,85.987 7.146,16.105 3.419,42.425 -0.186,67.878 -2.243,15.844 -4.563,32.227 -4.238,45.97 0.365,15.373 4.077,25.734 11.349,31.673 12.789,10.445 32.186,13.575 52.676,13.575 17.56,0 35.925,-2.3 51.61,-4.264 9.183,-1.15 17.114,-2.144 23.62,-2.535 0.923,-0.055 1.855,-0.082 2.799,-0.082 18.432,0.001 40.799,10.326 64.411,21.226 13.365,6.17 27.185,12.55 41.281,17.587 19.172,6.851 34.249,6.453 44.807,-1.183 12.341,-8.926 18.252,-27.491 17.568,-55.18 -0.59,-23.875 -2.977,-41.348 -4.895,-55.388 -3.355,-24.567 -5.572,-40.797 3.481,-68.748 0.277,-0.858 0.583,-1.708 0.911,-2.553 -0.568,1.352 -1.08,2.718 -1.525,4.102 -8.777,27.322 -7.194,43.342 -4.799,67.592 1.387,14.036 2.959,29.945 2.953,52.106 -0.047,26.162 -6.256,43.891 -18.454,52.692 -10.579,7.634 -25.442,8.368 -44.177,2.184 -14.048,-4.62 -27.843,-10.6 -41.183,-16.384 -22.981,-9.964 -44.726,-19.392 -62.769,-19.391 -0.58,0 -1.159,0.01 -1.73,0.03 -6.34,0.219 -14.196,0.941 -22.512,1.706 -33.245,3.055 -78.775,7.242 -102.144,-12.674 -16.302,-13.989 -12.075,-46.706 -7.987,-78.346 3.123,-24.17 6.352,-49.163 0.122,-64.912 -13.749,-34.76 -18.63,-62.241 -14.921,-84.014 3.841,-22.557 16.896,-39.263 39.909,-51.074 14.583,-7.481 28.728,-9.523 43.703,-11.684 19.241,-2.776 41.049,-5.923 69.024,-21.172 13.272,-7.234 25.064,-10.729 36.756,-10.729 4.721,0 9.426,0.57 14.204,1.693 18.782,4.416 38.595,17.47 62.354,41.082 12.209,12.165 26.664,19.63 40.642,26.849 16.537,8.54 33.636,17.37 46.471,33.97 16.068,20.679 1.646,38.11 -13.622,56.565 -0.26,0.313 -0.519,0.627 -0.779,0.941 1.081,-1.246 2.167,-2.487 3.249,-3.722 C 1.541,38.341 16.841,20.865 0,0 m -34.574,76.391 c 9.021,-17.884 17.543,-34.776 7.514,-53.154 -9.452,-17.321 -22.709,-28.703 -36.745,-40.754 -7.402,-6.355 -15.057,-12.927 -22.414,-20.618 -13.37,-13.976 -25.879,-23.904 -38.24,-30.35 -11.863,-6.187 -23.676,-9.195 -36.113,-9.195 -5.426,0 -10.893,0.557 -16.714,1.701 -12.917,2.54 -24.675,3.984 -35.993,5.25 2.981,-0.272 6.004,-0.534 9.078,-0.799 9.926,-0.859 20.189,-1.746 31.153,-3.159 4.005,-0.516 7.925,-0.774 11.776,-0.774 11.267,0 21.931,2.217 32.33,6.697 14.557,6.271 29.016,17.126 44.204,33.185 5.989,6.333 12.104,12.06 18.018,17.599 14.122,13.226 27.461,25.719 36.641,44.084 9.356,18.718 1.632,36.041 -6.551,54.38 0.684,-1.373 1.372,-2.737 2.056,-4.093 m 2.913,-3.273 c 5.104,-9.085 9.927,-17.665 12.155,-26.43 2.491,-9.796 1.33,-18.302 -3.656,-26.767 -9.9,-16.807 -23.399,-27.417 -37.69,-38.65 -8.694,-6.833 -17.684,-13.901 -26.131,-22.641 -13.604,-14.074 -26.184,-24.067 -38.458,-30.546 -11.722,-6.188 -23.245,-9.196 -35.226,-9.196 -6.757,0 -13.626,0.936 -21.002,2.864 -18.023,4.708 -34.271,6.74 -48.606,8.534 -0.771,0.097 -1.536,0.193 -2.299,0.288 4.533,-0.565 9.172,-1.077 13.948,-1.602 12.92,-1.423 26.281,-2.894 41.169,-5.821 5.763,-1.132 11.357,-1.701 16.822,-1.701 9.754,0 19.096,1.81 28.247,5.447 15.139,6.017 30.45,17.254 46.81,34.355 7.326,7.659 14.965,14.217 22.351,20.559 14.099,12.104 27.415,23.538 36.945,41.001 10.252,18.787 1.629,35.88 -7.5,53.978 -0.221,0.436 -0.441,0.873 -0.661,1.311 0.922,-1.673 1.855,-3.333 2.782,-4.983 m 2.886,-3.004 c 5.618,-9.09 10.924,-17.676 13.398,-26.478 2.766,-9.845 1.529,-18.437 -3.893,-27.04 -10.41,-16.522 -24.31,-26.534 -39.027,-37.132 -9.871,-7.109 -20.078,-14.46 -29.453,-24.069 -13.873,-14.222 -26.583,-24.316 -38.857,-30.86 -11.681,-6.226 -23.031,-9.254 -34.7,-9.254 -7.908,0 -16.007,1.375 -24.761,4.202 -20.59,6.651 -38.513,9.064 -54.327,11.193 -18.985,2.555 -35.381,4.763 -52.355,13.116 -21.378,10.541 -35.122,25.498 -42.015,45.725 -6.632,19.46 -6.922,43.868 -0.886,74.619 1.251,6.377 1.646,13.595 1.564,21.371 0.29,-8.965 0.158,-17.329 -0.906,-24.704 -8.671,-60.084 6.532,-97.45 47.841,-117.595 18.257,-8.884 36.109,-11.116 56.779,-13.702 15.011,-1.878 30.532,-3.819 48.505,-8.516 7.412,-1.935 14.431,-2.907 21.247,-2.907 8.452,0 16.595,1.494 24.791,4.494 15.719,5.755 31.882,17.369 49.411,35.507 8.41,8.701 17.379,15.751 26.053,22.568 14.351,11.281 27.906,21.936 37.881,38.869 11.178,18.978 1.625,35.981 -8.491,53.983 -0.441,0.786 -0.884,1.575 -1.327,2.367 1.167,-1.934 2.351,-3.852 3.528,-5.757 m 2.868,-2.824 c 6.14,-9.127 11.94,-17.748 14.662,-26.619 3.046,-9.93 1.732,-18.639 -4.135,-27.407 -10.968,-16.392 -25.376,-25.915 -40.631,-35.998 -10.97,-7.251 -22.314,-14.748 -32.506,-25.108 -14.173,-14.408 -27.059,-24.635 -39.394,-31.263 -11.712,-6.294 -22.977,-9.354 -34.44,-9.354 -8.931,0 -18.133,1.857 -28.131,5.677 -22.789,8.707 -42.007,11.405 -58.963,13.786 -17.784,2.497 -33.142,4.653 -49.248,12.665 -21.744,10.837 -35.278,26.194 -41.377,46.951 -5.865,19.959 -4.889,45.138 2.983,76.974 2.104,8.51 2.387,18.734 1.882,29.903 0.695,-12.343 0.743,-23.739 -1.12,-33.229 -6.06,-30.872 -5.762,-55.396 0.91,-74.973 6.955,-20.407 20.812,-35.493 42.362,-46.119 17.074,-8.402 33.522,-10.616 52.567,-13.181 15.785,-2.125 33.676,-4.533 54.207,-11.165 8.766,-2.831 16.996,-4.245 24.993,-4.245 7.459,0 14.716,1.23 22.016,3.687 16.296,5.486 33.309,17.472 52.011,36.643 9.333,9.567 19.516,16.9 29.363,23.992 14.772,10.639 28.726,20.688 39.208,37.322 12.127,19.249 1.621,36.249 -9.503,54.246 -0.687,1.11 -1.375,2.225 -2.062,3.345 1.434,-2.197 2.895,-4.372 4.346,-6.53 m 2.857,-2.698 c 6.668,-9.187 12.966,-17.863 15.94,-26.824 3.331,-10.043 1.938,-18.89 -4.384,-27.842 -11.537,-16.338 -26.507,-25.429 -42.355,-35.054 -12.046,-7.315 -24.502,-14.88 -35.434,-25.951 -14.549,-14.618 -27.669,-24.994 -40.109,-31.72 -11.809,-6.385 -23.056,-9.488 -34.383,-9.488 -9.84,0 -20.024,2.37 -31.135,7.244 -24.719,10.844 -44.975,13.75 -62.845,16.314 -16.869,2.42 -31.437,4.511 -46.883,12.277 -22.124,11.139 -35.467,26.91 -40.791,48.214 -5.124,20.502 -2.864,46.441 6.908,79.301 4.516,15.186 2.295,36.504 -0.055,59.075 -3.279,31.482 -6.669,64.035 9.458,79.167 8.237,7.729 19.727,13.001 35.126,16.117 15.242,3.085 31.898,3.442 43.106,3.442 6.845,0 13.421,-0.149 19.78,-0.294 5.547,-0.126 10.787,-0.244 15.548,-0.244 1.345,0 2.572,0.009 3.752,0.028 17.264,0.277 37.465,7.824 58.854,15.813 13.507,5.045 27.474,10.262 41.622,14.021 6.746,1.817 13.075,2.738 18.812,2.738 12.671,0 22.735,-4.437 29.913,-13.187 7.39,-9.01 11.702,-22.567 12.814,-40.295 1.199,-19.113 0.985,-33.482 0.797,-46.158 -0.333,-22.369 -0.569,-38.614 7.339,-64.088 -0.07,0.214 -0.147,0.427 -0.213,0.642 -7.843,25.113 -8.358,41.062 -9.069,63.135 -0.389,12.092 -0.831,25.797 -2.615,43.62 -2.116,21.129 -8.975,35.984 -20.387,44.15 -10.394,7.437 -24.365,9.182 -41.523,5.186 -14.3,-3.33 -28.456,-8.163 -42.146,-12.837 -20.088,-6.858 -39.063,-13.335 -55.548,-14.017 -5.104,-0.211 -10.8,-0.287 -16.831,-0.368 -16.344,-0.22 -34.869,-0.468 -52.371,-3.402 -20.345,-3.41 -35.039,-9.793 -44.926,-19.515 -16.364,-16.094 -13.371,-48.878 -10.477,-80.584 1.916,-20.995 3.726,-40.826 0.105,-55.474 -7.898,-31.939 -8.871,-57.217 -2.977,-77.279 6.148,-20.922 19.781,-36.397 41.678,-47.31 16.192,-8.055 31.594,-10.218 49.428,-12.721 16.925,-2.377 36.109,-5.07 58.835,-13.753 9.995,-3.819 19.306,-5.716 28.369,-5.716 6.617,0 13.102,1.011 19.621,3.024 16.867,5.21 34.727,17.564 54.603,37.768 10.148,10.315 21.466,17.796 32.411,25.03 15.305,10.117 29.762,19.671 40.795,36.161 13.094,19.568 1.621,36.623 -10.527,54.679 -0.952,1.415 -1.908,2.839 -2.858,4.27 1.718,-2.458 3.48,-4.887 5.228,-7.295 m 2.849,-2.606 c 7.2,-9.262 14.001,-18.011 17.227,-27.078 1.724,-4.846 2.273,-9.355 1.678,-13.787 -0.665,-4.948 -2.73,-9.704 -6.315,-14.539 -12.163,-16.404 -27.778,-25.144 -44.309,-34.395 -13.039,-7.298 -26.521,-14.844 -38.132,-26.504 -14.88,-14.865 -28.23,-25.417 -40.817,-32.261 -11.933,-6.488 -23.21,-9.643 -34.478,-9.643 -10.852,0 -21.656,2.834 -34.001,8.92 -26.449,13.039 -47.56,16.092 -66.186,18.785 -15.486,2.24 -30.112,4.356 -45.049,11.942 -22.52,11.45 -35.687,27.647 -40.254,49.519 -4.404,21.089 -0.844,47.78 10.884,81.598 5.386,15.532 2.738,38.186 -0.066,62.171 -3.681,31.496 -7.488,64.065 8.66,78.527 7.255,6.497 16.957,11.018 29.659,13.821 10.191,2.248 22.259,3.341 36.9,3.341 11.501,0 23.01,-0.668 33.166,-1.257 7.742,-0.449 15.055,-0.874 21.159,-0.93 0.168,-0.001 0.342,-0.002 0.511,-0.002 17.795,0 38.965,8.557 61.378,17.616 13.374,5.405 27.202,10.994 41.246,15.184 7.537,2.268 14.534,3.417 20.799,3.417 12.674,0 22.603,-4.655 29.508,-13.836 7.101,-9.441 11,-23.657 11.587,-42.251 0.582,-20.479 -0.296,-35.545 -1.072,-48.837 -1.348,-23.131 -2.323,-39.843 6.215,-66.653 0.321,-1.008 0.676,-2.006 1.059,-2.997 -0.617,1.499 -1.175,3.014 -1.657,4.548 -8.186,25.947 -7.943,42.275 -7.607,64.873 0.189,12.686 0.403,27.064 -0.798,46.197 -1.432,22.82 -8.089,38.647 -19.785,47.042 -10.454,7.503 -24.708,8.896 -42.365,4.14 -14.169,-3.764 -28.148,-8.986 -41.666,-14.035 -21.349,-7.974 -41.512,-15.506 -58.692,-15.782 -5.698,-0.092 -12.297,0.058 -19.284,0.216 -32.008,0.727 -75.846,1.721 -98.353,-19.396 -16.302,-15.297 -12.9,-47.973 -9.609,-79.573 2.346,-22.521 4.561,-43.792 0.073,-58.886 -9.798,-32.945 -12.059,-58.969 -6.914,-79.557 5.361,-21.45 18.787,-37.325 41.045,-48.531 15.516,-7.801 30.824,-9.998 47.031,-12.323 17.841,-2.56 38.061,-5.461 62.72,-16.278 11.096,-4.868 21.369,-7.274 31.391,-7.274 5.9,0 11.712,0.834 17.554,2.491 17.395,4.931 36.112,17.639 57.222,38.849 10.891,11.03 23.321,18.579 35.341,25.879 15.893,9.651 30.905,18.768 42.5,35.189 14.07,19.922 1.62,37.074 -11.559,55.231 -1.337,1.843 -2.683,3.696 -4.011,5.566 2.113,-2.855 4.299,-5.669 6.466,-8.457 m -19.734,32.985 c -8.516,26.741 -7.544,43.424 -6.197,66.513 0.776,13.301 1.654,28.376 1.071,48.871 -0.773,24.51 -7.223,41.294 -19.171,49.888 -10.502,7.552 -25.043,8.609 -43.218,3.141 -14.06,-4.195 -27.897,-9.788 -41.279,-15.196 -22.374,-9.043 -43.515,-17.589 -61.239,-17.588 -0.167,0 -0.337,0.001 -0.503,0.002 -6.095,0.057 -13.404,0.481 -21.143,0.929 -32.554,1.889 -77.137,4.475 -100.003,-16.003 -16.297,-14.595 -12.478,-47.265 -8.785,-78.859 2.798,-23.94 5.442,-46.551 0.084,-61.999 -11.752,-33.887 -15.316,-60.645 -10.897,-81.804 4.593,-21.993 17.826,-38.278 40.457,-49.784 14.993,-7.615 29.651,-9.735 45.169,-11.979 18.597,-2.69 39.676,-5.738 66.07,-18.749 12.16,-5.996 23.345,-8.942 34.282,-8.942 5.253,10e-4 10.45,0.681 15.667,2.03 17.963,4.646 37.52,17.719 59.791,39.968 11.573,11.622 25.032,19.155 38.048,26.44 16.568,9.273 32.217,18.032 44.43,34.503 15.053,20.301 1.623,37.579 -12.595,55.87 -1.198,1.541 -2.402,3.09 -3.595,4.649 2.004,-2.516 4.058,-5.001 6.098,-7.466 C -2.215,41.061 12.121,23.733 -3.777,3.27 c -12.788,-16.54 -29.854,-25.352 -46.357,-33.874 -14.002,-7.232 -28.481,-14.709 -40.727,-26.912 -23.712,-23.565 -43.473,-36.59 -62.191,-40.991 -16.524,-3.886 -32.166,-1.108 -50.717,9.003 -28.028,15.279 -49.869,18.431 -69.139,21.211 -14.946,2.157 -29.063,4.194 -43.595,11.649 -22.911,11.758 -35.906,28.384 -39.728,50.827 -3.698,21.71 1.177,49.13 14.902,83.83 6.263,15.832 3.028,40.869 -0.101,65.082 -4.076,31.55 -8.292,64.174 7.87,78.041 14.044,11.969 36.177,15.187 58.816,15.187 14.854,0 29.927,-1.386 43.074,-2.594 8.321,-0.765 16.181,-1.488 22.53,-1.708 0.578,-0.02 1.157,-0.029 1.742,-0.029 18.114,0.001 39.894,9.442 62.907,19.419 13.333,5.781 27.12,11.758 41.153,16.373 18.625,6.149 33.385,5.43 43.869,-2.136 12.104,-8.733 18.264,-26.368 18.312,-52.414 0.006,-22.145 -1.565,-38.045 -2.95,-52.072 -2.401,-24.292 -3.987,-40.341 4.813,-67.731 0.455,-1.418 0.981,-2.817 1.564,-4.202 -0.843,1.886 -1.586,3.798 -2.205,5.742 M -184.856,-71.69 c 5.251,-0.254 10.68,-0.516 16.215,-0.834 1.923,-0.111 3.826,-0.166 5.71,-0.166 13.214,0 25.512,2.728 37.433,8.287 13.979,6.518 27.587,16.983 41.6,31.992 4.215,4.515 8.456,8.82 12.556,12.983 14.646,14.869 28.481,28.914 37.465,48.822 8.221,18.212 2.088,35.421 -4.921,53.532 0.421,-0.948 0.843,-1.893 1.263,-2.834 8.086,-18.124 15.723,-35.243 6.573,-53.548 -9.101,-18.206 -22.377,-30.64 -36.433,-43.804 -5.923,-5.549 -12.05,-11.286 -18.06,-17.641 -13.184,-13.94 -25.701,-23.854 -38.271,-30.31 -12.143,-6.237 -24.41,-9.268 -37.5,-9.268 -3.786,0 -7.72,0.258 -11.696,0.771 -9.377,1.207 -18.233,2.031 -26.807,2.781 4.856,-0.28 9.808,-0.519 14.873,-0.763 m -48.439,11.81 c -14.353,4.87 -27.768,11.975 -39.872,21.118 -12.228,9.236 -22.79,20.307 -31.394,32.907 -8.901,13.034 -15.517,27.443 -19.665,42.827 -4.955,18.376 -6.162,37.171 -3.589,55.863 2.485,18.057 8.375,35.259 17.504,51.13 9.13,15.871 21.04,29.61 35.4,40.835 14.866,11.621 31.72,20.026 50.096,24.98 12.046,3.248 24.423,4.896 36.792,4.896 h 0.002 c 15.339,0 30.509,-2.508 45.087,-7.455 14.352,-4.87 27.766,-11.975 39.871,-21.118 12.226,-9.236 22.788,-20.308 31.391,-32.907 8.901,-13.034 15.517,-27.443 19.664,-42.826 4.955,-18.375 6.162,-37.171 3.59,-55.863 -2.485,-18.057 -8.375,-35.259 -17.505,-51.13 -9.13,-15.871 -21.04,-29.609 -35.399,-40.835 -14.866,-11.621 -31.721,-20.025 -50.096,-24.98 -12.05,-3.25 -24.427,-4.897 -36.787,-4.897 -15.34,0 -30.511,2.509 -45.09,7.455 m -17.88,4.542 c -19.173,8.645 -35.375,21.278 -48.155,37.55 -8.574,10.917 -15.343,23.145 -20.239,36.528 17.728,-42.576 54.607,-72.9 97.569,-83.46 -10.201,2.094 -19.949,5.226 -29.175,9.382 m -5.935,-0.126 c -19.358,8.857 -35.207,21.892 -47.109,38.743 -9.348,13.237 -16.089,28.586 -20.12,45.773 2.014,-7.166 4.531,-14.085 7.527,-20.666 4.428,-9.725 9.942,-18.82 16.392,-27.031 6.395,-8.142 13.769,-15.494 21.916,-21.848 8.154,-6.361 17.158,-11.78 26.759,-16.11 7.186,-3.237 14.773,-5.89 22.553,-7.885 1.149,-0.295 2.309,-0.572 3.474,-0.84 -11.29,2.16 -21.7,5.436 -31.392,9.864 m -5.937,-0.126 c -19.579,9.085 -35.094,22.513 -46.112,39.91 -9.782,15.449 -16.016,34.016 -18.578,55.277 3.549,-21.78 11.097,-40.96 22.467,-57.06 5.96,-8.439 12.999,-16.027 20.921,-22.554 7.969,-6.565 16.953,-12.157 26.703,-16.618 9.048,-4.134 18.589,-7.244 28.846,-9.404 -12.61,2.206 -23.858,5.638 -34.247,10.449 m -5.938,-0.125 c -9.971,4.689 -18.843,10.549 -26.372,17.42 -7.437,6.787 -13.762,14.741 -18.798,23.642 -9.879,17.46 -15.172,39.188 -15.74,64.587 10e-4,-0.017 0.002,-0.034 0.004,-0.05 0.077,-0.984 0.154,-1.96 0.23,-2.93 1.926,-24.59 8.486,-45.877 19.5,-63.268 11.141,-17.594 26.825,-31.17 46.615,-40.352 7.253,-3.359 14.753,-6 22.925,-8.074 2.775,-0.704 5.606,-1.336 8.517,-1.902 -12.778,2.064 -24.976,5.342 -36.881,10.927 m -64.197,131.527 c 0.134,-6.553 0.042,-12.762 -0.478,-18.474 -1.276,-13.998 -1.232,-26.932 0.129,-38.441 1.393,-11.767 4.215,-22.486 8.387,-31.859 4.246,-9.537 10.044,-18.027 17.234,-25.235 7.283,-7.302 16.252,-13.547 26.66,-18.564 15.412,-7.412 30.774,-10.387 47.58,-12.527 -19.176,2.418 -36.002,4.865 -53.137,13.202 -40.958,19.974 -56.022,57.079 -47.407,116.776 0.675,4.682 0.973,9.758 1.032,15.122 m 258.398,114.37 c -5.478,13.368 -13.571,23.585 -24.056,30.368 -10.001,6.47 -22.054,9.747 -35.84,9.747 -0.272,0 -0.548,-0.001 -0.821,-0.004 -21.436,-0.2 -43.029,-4.312 -63.911,-8.287 -7.106,-1.353 -13.818,-2.631 -20.443,-3.741 -21.537,-3.61 -38.333,-7.974 -52.859,-13.736 -9.084,-3.604 -17.221,-7.786 -24.183,-12.431 -7.77,-5.183 -14.346,-11.119 -19.546,-17.641 -8.697,-10.912 -13.853,-26.105 -15.761,-46.449 -0.517,-5.515 -0.779,-11.128 -0.868,-16.789 -0.192,9.3 -0.062,18.507 0.795,27.301 1.779,18.246 6.496,31.713 14.421,41.169 10.088,12.037 24.972,21.181 45.503,27.955 17.455,5.758 36.257,8.885 53.975,11.406 10.377,1.477 21.208,3.774 32.675,6.206 17.722,3.758 36.047,7.644 54.273,8.781 1.707,0.106 3.412,0.16 5.071,0.16 h 0.002 c 13.324,0 24.742,-3.443 33.936,-10.234 9.462,-6.988 16.509,-17.485 20.944,-31.2 6.49,-20.063 10.292,-34.987 14.319,-50.787 0.777,-3.05 1.562,-6.128 2.373,-9.267 -5.623,18.946 -10.999,35.51 -19.999,57.473 m 13.57,-42.259 c -4.946,12.926 -10.607,25.437 -17.816,39.373 -12.259,23.697 -33.173,36.93 -60.482,38.269 -27.684,1.358 -56.371,-4.178 -81.681,-9.063 -19.64,-3.79 -36.989,-9.184 -51.566,-16.034 -17.893,-8.407 -31.861,-19.133 -41.514,-31.877 -10.05,-13.267 -15.757,-31.532 -17.448,-55.838 -0.124,-1.795 -0.218,-3.601 -0.299,-5.411 0.017,6.946 0.267,13.832 0.898,20.564 1.888,20.127 6.967,35.132 15.529,45.873 5.13,6.435 11.622,12.295 19.299,17.415 6.899,4.603 14.967,8.749 23.981,12.325 14.453,5.732 31.179,10.077 52.637,13.674 6.637,1.113 13.355,2.391 20.467,3.745 20.835,3.967 42.379,8.069 63.719,8.269 0.269,0.002 0.539,0.003 0.807,0.003 27.955,0 48.321,-13.638 58.893,-39.439 8.349,-20.375 13.575,-36.103 18.78,-53.413 -1.389,4.021 -2.78,7.844 -4.204,11.565 m -22.062,36.485 c -13.695,20.907 -34.528,33.504 -60.248,36.429 -22.61,2.571 -48.454,0.577 -79.006,-6.097 -8.949,-1.954 -17.639,-4.44 -25.832,-7.389 -8.705,-3.133 -16.927,-6.817 -24.435,-10.952 -16.578,-9.129 -29.803,-20.458 -39.306,-33.673 -5.358,-7.452 -9.669,-16.267 -12.813,-26.202 -2.846,-8.994 -4.807,-19.132 -5.828,-30.133 -0.08,-0.857 -0.152,-1.725 -0.22,-2.597 0.088,2.976 0.223,5.939 0.427,8.877 1.675,24.069 7.304,42.126 17.21,55.204 9.536,12.589 23.355,23.194 41.073,31.519 14.488,6.808 31.743,12.172 51.285,15.943 22.465,4.335 47.928,9.249 72.784,9.249 h 0.001 c 2.924,0 5.822,-0.069 8.615,-0.206 26.861,-1.318 47.431,-14.329 59.484,-37.629 9.093,-17.576 15.428,-32.322 20.848,-47.569 -6.349,15.614 -14.007,29.911 -24.039,45.226 M -274.925,-55.839 c -10.141,4.829 -19.017,10.854 -26.382,17.904 -7.267,6.957 -13.291,15.134 -17.905,24.304 -4.556,9.05 -7.881,19.355 -9.886,30.625 -1.976,11.108 -2.731,23.504 -2.244,36.846 0.054,1.477 0.087,2.983 0.104,4.511 0.107,-2.703 0.192,-5.349 0.243,-7.937 0.255,-12.82 1.71,-24.821 4.324,-35.67 2.64,-10.959 6.533,-21.029 11.57,-29.932 5.093,-9 11.489,-17.044 19.012,-23.91 7.609,-6.944 16.572,-12.865 26.641,-17.599 11.23,-5.27 22.698,-8.499 34.649,-10.595 -13.964,2.063 -27.131,5.279 -40.126,11.453 m -55.144,72.66 c 2.021,-11.365 5.378,-21.759 9.975,-30.895 4.665,-9.271 10.757,-17.538 18.105,-24.573 7.441,-7.124 16.404,-13.207 26.64,-18.082 12.45,-5.916 25.03,-9.133 38.293,-11.218 -15.374,2.105 -29.588,5.145 -43.809,11.985 -10.318,4.973 -19.206,11.16 -26.418,18.391 -7.113,7.131 -12.849,15.532 -17.05,24.969 -4.137,9.292 -6.936,19.925 -8.317,31.604 -1.355,11.447 -1.397,24.318 -0.128,38.256 0.278,3.046 0.435,6.228 0.502,9.527 0.095,-4.48 0.098,-8.799 -0.052,-12.91 -0.489,-13.41 0.27,-25.877 2.259,-37.054 m 104.475,194.287 c -56.024,-15.274 -95.113,-61.964 -103.382,-115.934 0.185,2.091 0.4,4.167 0.661,6.218 2.699,21.185 9.27,39.585 19.527,54.686 9.33,13.628 21.688,25.425 36.73,35.064 13.907,8.91 29.531,15.617 46.464,19.966 m 160.488,-65.53 c -25.432,43.569 -72.462,70.588 -122.923,70.586 -7.611,-10e-4 -15.303,-0.617 -23.01,-1.883 11.448,2.068 22.779,3.117 33.823,3.117 h 0.002 c 10.13,0 20.028,-0.892 29.425,-2.653 23.69,-4.362 44.163,-16.159 59.205,-34.118 9.411,-11.236 17.153,-22.765 23.478,-35.049 m -22.415,35.94 c -7.657,9.141 -16.718,16.744 -26.933,22.597 -10.073,5.771 -21.204,9.806 -33.084,11.993 -9.498,1.781 -19.457,2.677 -29.704,2.677 -2.725,0 -5.471,-0.064 -8.233,-0.191 -12.566,-0.577 -25.483,-2.467 -38.392,-5.616 -8.792,-2.145 -17.384,-4.973 -25.536,-8.406 -8.255,-3.476 -16.129,-7.602 -23.403,-12.263 -7.431,-4.761 -14.311,-10.13 -20.45,-15.957 -6.317,-5.996 -11.927,-12.553 -16.677,-19.49 -5.281,-7.776 -9.653,-16.555 -12.995,-26.095 -3.173,-9.056 -5.448,-18.88 -6.763,-29.2 -0.111,-0.869 -0.206,-1.746 -0.303,-2.622 0.135,2.493 0.309,4.939 0.531,7.327 2.13,22.941 8.322,41.682 18.405,55.703 9.39,13.058 22.472,24.261 38.882,33.297 14.595,8.037 31.39,14.164 49.92,18.211 22.025,4.811 41.286,7.149 58.885,7.15 h 0.001 c 6.803,0 13.431,-0.362 19.701,-1.075 25.327,-2.88 45.838,-15.278 59.316,-35.855 9.128,-13.935 16.284,-27.022 22.272,-41.04 -0.899,1.849 -1.824,3.679 -2.777,5.477 -6.141,11.585 -13.554,22.503 -22.663,33.378 m -237.103,15.928 c 9.767,10.072 24.306,16.983 44.448,21.129 17.403,3.582 35.867,4.5 52.158,5.309 4.802,0.239 9.338,0.465 13.566,0.746 15.624,1.04 33.174,6.453 51.755,12.184 14.104,4.351 28.689,8.849 43.361,11.716 4.991,0.976 9.781,1.47 14.24,1.471 h 0.002 c 12.77,0 23.205,-4.009 31.017,-11.914 8.052,-8.149 13.301,-20.419 15.599,-36.471 2.405,-16.788 3.503,-29.982 4.473,-41.623 1.234,-14.809 2.281,-27.378 5.551,-42.254 -3.441,14.344 -5.139,26.581 -7.023,40.167 -1.597,11.524 -3.408,24.585 -6.568,40.927 -3.408,17.622 -10.548,30.462 -21.221,38.165 -10.376,7.487 -23.903,10.003 -40.209,7.479 -15.388,-2.383 -30.716,-6.598 -45.54,-10.674 -16.709,-4.595 -32.491,-8.935 -46.823,-10.251 -2.906,-0.266 -5.9,-0.521 -9.071,-0.79 -16.465,-1.398 -35.127,-2.982 -52.768,-7.276 -20.503,-4.99 -35.312,-12.654 -45.272,-23.43 -7.507,-8.122 -11.851,-20.194 -13.28,-36.906 -1.014,-11.868 -0.503,-24.866 0.288,-37.805 -2.461,31.371 -4.734,63.549 11.317,80.101 M -53.32,160.05 c -0.971,11.65 -2.071,24.855 -4.479,41.664 -2.79,19.481 -9.859,33.377 -21.014,41.302 -10.351,7.356 -24.03,9.438 -40.655,6.188 -14.708,-2.874 -29.31,-7.379 -43.432,-11.734 -18.541,-5.719 -36.053,-11.12 -51.598,-12.155 -4.222,-0.281 -8.754,-0.506 -13.554,-0.745 -16.315,-0.811 -34.808,-1.73 -52.262,-5.323 -20.282,-4.175 -34.936,-11.149 -44.803,-21.324 -16.46,-16.973 -13.924,-49.888 -11.42,-81.768 -0.207,2.35 -0.422,4.72 -0.64,7.106 -2.882,31.57 -5.862,64.214 10.304,80.113 9.798,9.634 24.391,15.966 44.612,19.355 17.458,2.926 35.96,3.174 52.283,3.394 6.035,0.081 11.735,0.157 16.846,0.369 16.57,0.685 35.583,7.175 55.713,14.048 13.677,4.668 27.818,9.496 42.09,12.82 5.892,1.372 11.481,2.068 16.612,2.068 h 0.001 c 12.707,0 22.943,-4.217 30.419,-12.532 7.706,-8.57 12.471,-21.476 14.161,-38.36 1.783,-17.802 2.225,-31.497 2.614,-43.58 0.59,-18.339 1.05,-32.464 5.671,-51.109 -4.832,18.549 -6.023,32.832 -7.469,50.203 m 6.714,-120.41 c -3.243,-11.3 -7.923,-21.996 -14.308,-32.7 -5.747,-9.633 -12.781,-19.095 -21.503,-28.926 -18.786,-21.176 -40.886,-34.971 -65.781,-41.091 68.383,19.933 110.776,86.979 101.239,156.056 3.801,-17.558 5.419,-35.683 0.353,-53.339 m 3.916,-3.249 c -8.683,-25.152 -24.76,-44.224 -40.484,-61.603 -11.544,-12.759 -23.345,-22.33 -36.076,-29.261 -12.79,-6.962 -26.104,-11.033 -40.705,-12.445 -0.649,-0.063 -1.291,-0.124 -1.932,-0.183 2.147,0.321 4.301,0.675 6.457,1.065 7.161,1.293 14.193,3.211 20.899,5.7 6.635,2.462 13.129,5.549 19.302,9.174 6.11,3.589 12.07,7.801 17.714,12.52 5.589,4.672 11.017,9.966 16.135,15.735 8.78,9.897 15.864,19.428 21.656,29.136 3.121,5.231 5.897,10.589 8.249,15.927 2.459,5.577 4.546,11.33 6.202,17.101 3.024,10.537 3.926,21.842 2.759,34.56 -0.478,5.208 -1.29,10.633 -2.503,16.626 5.068,-18.494 8.474,-36.247 2.327,-54.052 m 1.757,49.037 c 0.115,-0.293 0.229,-0.589 0.342,-0.882 7.231,-18.634 14.061,-36.234 5.724,-54.706 -8.905,-19.73 -22.673,-33.707 -37.249,-48.505 -4.106,-4.168 -8.351,-8.479 -12.576,-13.004 -13.056,-13.983 -25.697,-23.952 -38.646,-30.478 -12.627,-6.364 -25.578,-9.457 -39.595,-9.457 -1.851,0 -3.751,0.055 -5.645,0.165 -5.54,0.318 -10.972,0.581 -16.225,0.834 -0.655,0.031 -1.304,0.063 -1.956,0.094 1.86,-0.019 3.718,-0.029 5.572,-0.029 5.713,0 11.388,0.081 16.952,0.178 30.054,0.526 55.848,13.591 81.176,41.119 1.591,1.729 3.192,3.458 4.741,5.131 8.303,8.966 16.146,17.436 23.107,26.566 7.816,10.252 13.389,19.858 17.536,30.229 7.087,17.722 2.585,34.848 -3.258,52.745 m 2.156,-52.305 c -9,-22.508 -24.259,-38.985 -40.412,-56.43 -1.57,-1.694 -3.152,-3.403 -4.744,-5.132 -25.091,-27.272 -50.615,-40.216 -80.323,-40.737 -3.829,-0.066 -7.143,-0.113 -10.166,-0.14 4.694,0.259 9.548,0.628 14.591,1.117 7.307,0.707 14.468,2.122 21.283,4.206 6.814,2.084 13.514,4.906 19.913,8.39 6.379,3.472 12.677,7.719 18.718,12.623 6.003,4.874 11.958,10.561 17.698,16.905 7.573,8.371 16.317,18.376 23.747,29.124 7.571,10.949 13.131,21.718 16.998,32.922 5.95,17.232 3.148,34.291 -1.533,51.964 6.205,-18.734 11.539,-36.536 4.23,-54.812 m -296.305,83.06 c -0.83,13.308 -1.404,26.715 -0.363,38.9 1.413,16.531 5.69,28.451 13.074,36.439 9.851,10.659 24.532,18.248 44.881,23.2 17.581,4.279 36.212,5.861 52.649,7.257 3.171,0.269 6.167,0.523 9.075,0.79 14.401,1.322 30.216,5.671 46.96,10.275 14.802,4.071 30.108,8.28 45.452,10.656 4.014,0.621 7.915,0.936 11.598,0.937 h 0.002 c 12.881,0 23.568,-3.809 31.766,-11.322 8.447,-7.741 14.224,-19.393 17.172,-34.632 3.156,-16.321 4.964,-29.371 6.561,-40.885 1.622,-11.706 3.107,-22.41 5.685,-34.324 -2.528,10.413 -4.399,19.882 -6.334,29.682 -2.506,12.691 -5.098,25.814 -9.387,42.794 -4.093,16.202 -11.549,28.168 -22.162,35.564 -10.317,7.188 -23.447,9.959 -39.029,8.235 -16.492,-1.824 -32.976,-5.815 -48.917,-9.675 -14.442,-3.496 -28.083,-6.798 -40.779,-8.284 l -2.654,-0.31 c -32.86,-3.829 -77.865,-9.073 -100.949,-35.291 -7.707,-8.754 -12.241,-21.456 -13.862,-38.833 -0.926,-9.924 -0.853,-20.508 -0.439,-31.173 m 0.975,-2.173 c -0.489,11.379 -0.638,22.706 0.346,33.264 1.603,17.183 6.067,29.721 13.646,38.329 10.118,11.492 25.255,19.919 46.276,25.763 18.137,5.042 37.248,7.269 54.11,9.234 l 2.654,0.309 c 12.749,1.492 26.415,4.801 40.885,8.304 15.914,3.853 32.37,7.837 48.805,9.655 2.935,0.325 5.823,0.489 8.588,0.489 h 10e-4 c 13.059,0 24.067,-3.619 32.716,-10.757 8.909,-7.352 15.278,-18.411 18.93,-32.867 4.283,-16.958 6.872,-30.07 9.377,-42.75 1.616,-8.182 3.187,-16.134 5.131,-24.598 -1.244,4.746 -2.41,9.32 -3.559,13.834 -4.031,15.816 -7.838,30.755 -14.337,50.848 -4.781,14.784 -12.556,25.875 -23.107,32.964 -10.256,6.892 -22.99,9.918 -37.846,8.99 -18.298,-1.141 -36.659,-5.034 -54.416,-8.8 -11.451,-2.428 -22.266,-4.722 -32.61,-6.194 -17.763,-2.527 -36.617,-5.664 -54.145,-11.446 -20.71,-6.833 -35.74,-16.077 -45.95,-28.258 -8.057,-9.614 -12.848,-23.257 -14.647,-41.708 -0.775,-7.952 -0.959,-16.23 -0.848,-24.605 M -14.379,57.089 c -9.584,10.946 -19.493,22.265 -23.622,35.012 -9.026,27.871 -6.813,44.067 -3.465,68.584 1.919,14.049 4.307,31.533 4.898,55.429 0.687,27.819 -5.276,46.489 -17.722,55.49 -10.664,7.713 -25.856,8.127 -45.151,1.232 -14.111,-5.043 -27.938,-11.426 -41.311,-17.599 -24.776,-11.438 -48.18,-22.239 -67.031,-21.111 -6.495,0.391 -14.42,1.383 -23.597,2.532 -34.055,4.265 -80.695,10.106 -104.568,-9.391 -7.361,-6.012 -11.117,-16.464 -11.485,-31.953 -0.326,-13.773 1.996,-30.171 4.242,-46.03 3.597,-25.402 7.317,-51.668 0.214,-67.675 -15.782,-35.566 -21.991,-63.758 -18.981,-86.188 3.104,-23.139 15.991,-40.279 39.396,-52.401 14.259,-7.385 27.995,-9.348 42.538,-11.427 19.8,-2.83 42.244,-6.037 71.676,-23.555 14.229,-8.469 26.784,-12.528 39.292,-12.528 4.214,0 8.423,0.461 12.688,1.368 19.345,4.118 39.97,17.525 64.908,42.194 12.83,12.691 28.264,20.071 43.189,27.206 17.238,8.243 35.062,16.765 48.56,33.489 17.038,21.108 1.637,38.698 -14.668,57.322" /></g><g
           transform="translate(460.9355,271.6498)"
           id="g24"><path
             id="path26"
             style="fill:#000000;fill-opacity:1;fill-rule:nonzero;stroke:none"
             d="m 0,0 -22.432,33.407 h -12.899 v -56.08 h 16.184 V 4.085 L -1.683,-22.673 H 1.683 L 19.147,4.085 v -26.758 h 16.184 v 56.08 H 22.433 Z M 240.669,0.56 250.844,18.827 260.938,0.56 Z m 18.827,32.847 h -17.385 l -33.568,-56.08 h 19.147 l 5.289,9.453 h 35.651 l 5.287,-9.453 h 19.147 z m -113.043,-21.23 -0.08,8.252 h 26.439 c 3.124,0 4.646,-1.282 4.646,-4.166 0,-2.885 -1.522,-4.086 -4.646,-4.086 z m 23.394,-7.691 h 5.768 c 10.976,0 18.026,5.207 18.026,14.1 0,8.893 -6.729,14.821 -18.026,14.821 h -45.264 v -56.08 h 16.183 l -0.081,22.592 h 10.415 c 2.965,0 5.448,-0.561 7.371,-1.762 1.923,-1.202 3.845,-3.205 5.849,-6.089 2.003,-2.964 4.887,-7.851 8.732,-14.741 h 19.708 c -3.205,6.65 -6.089,11.777 -8.652,15.462 C 184.748,0.16 178.9,3.925 169.847,4.486 M -69.141,4.085 c 0,-8.893 -5.367,-13.619 -14.42,-13.619 -9.053,0 -14.421,4.726 -14.421,13.619 v 29.322 h -16.183 V 6.488 c 0,-23.232 11.457,-30.443 30.604,-30.443 19.147,0 30.603,7.211 30.603,30.443 V 33.407 H -69.141 Z M 95.579,-8.813 H 70.103 l -0.081,8.251 h 25.557 c 2.804,0 4.647,-1.442 4.647,-4.326 0,-2.643 -1.523,-3.925 -4.647,-3.925 m -1.763,28.44 c 2.884,0 4.647,-0.961 4.647,-3.765 0,-2.804 -1.683,-3.685 -4.647,-3.685 H 70.022 l -0.08,7.45 z M 99.104,5.848 c 9.854,0.56 15.542,4.727 15.542,12.738 0,4.406 -1.602,8.012 -4.726,10.736 -3.205,2.723 -7.611,4.085 -13.3,4.085 H 53.759 v -56.08 h 44.624 c 10.815,0 18.106,6.009 18.106,14.902 0,8.572 -6.569,13.378 -17.385,13.619 m -404.989,6.329 h -23.153 v 8.252 h 23.153 c 3.125,0 4.647,-1.362 4.647,-4.166 0,-2.885 -1.522,-4.086 -4.647,-4.086 m 2.004,21.23 h -41.26 v -56.08 h 16.183 v 21.871 h 25.077 c 11.215,0 18.826,6.089 18.826,17.065 0,3.124 -0.801,6.008 -2.323,8.653 -3.124,5.207 -9.053,8.491 -16.503,8.491 m 32.447,-56.08 h 56.481 v 13.779 h -40.297 v 8.172 h 39.576 v 13.059 h -39.576 v 7.29 h 40.297 v 13.78 h -56.481 z m 122.658,25.156 -36.613,30.924 h -12.738 v -56.08 h 16.183 V 8.251 l 36.532,-30.924 h 12.819 v 56.08 h -16.183 z" /></g></g></g></g></svg>
